<?xml version="1.0" encoding="UTF-8" standalone="no"?><!DOCTYPE svg PUBLIC "-//W3C//DTD SVG 1.1//EN" "http://www.w3.org/Graphics/SVG/1.1/DTD/svg11.dtd"><svg width="100%" height="100%" viewBox="0 0 1919 685" version="1.1" xmlns="http://www.w3.org/2000/svg" xmlns:xlink="http://www.w3.org/1999/xlink" xml:space="preserve" xmlns:serif="http://www.serif.com/" style="fill-rule:evenodd;clip-rule:evenodd;stroke-linejoin:round;stroke-miterlimit:2;"><rect id="Tavola-da-disegno1" serif:id="Tavola da disegno1" x="0" y="0" width="1918.38" height="684.036" style="fill:none;"/><clipPath id="_clip1"><rect x="0" y="0" width="1918.38" height="684.036"/></clipPath><g clip-path="url(#_clip1)"><g id="Raggruppa_490"><path id="Tracciato_1" d="M-2.939,684.6l1920,-142.768l0,-541.832l-1920,0l0,684.6Z" style="fill:url(#_Linear2);fill-rule:nonzero;"/><path id="Tracciato_847" d="M256.73,361.509l-71.68,-14.4c4.686,-4.667 7.362,-10.988 7.452,-17.6c0,-15.787 -15.713,-28.584 -35.1,-28.584c-10.727,0 -20.324,3.924 -26.762,10.1c-2.756,-20.509 -24.085,-36.468 -50,-36.468c-3.225,0.001 -6.444,0.254 -9.629,0.758c-6.485,-30.334 -38.975,-53.398 -78.084,-53.398c-41.058,0 -74.825,25.424 -78.865,58c-7.794,-3.562 -16.27,-5.386 -24.839,-5.347c-27.785,0 -50.308,18.344 -50.308,40.974c0.005,3.161 0.452,6.305 1.329,9.342c-1.671,-0.325 -3.369,-0.488 -5.071,-0.488c-12.037,0 -21.8,7.948 -21.8,17.751c0.001,1.244 0.16,2.484 0.474,3.688l-81.847,15.672l524.73,0Z" style="fill:#e2f1ff;fill-rule:nonzero;"/><path id="Tracciato_848" d="M2044.75,312.27l-34.772,-6.983c2.273,-2.263 3.571,-5.33 3.615,-8.537c0,-7.658 -7.622,-13.866 -17.025,-13.866c-4.793,-0.085 -9.441,1.669 -12.982,4.9c-1.337,-9.948 -11.685,-17.69 -24.255,-17.69c-1.564,0 -3.126,0.124 -4.671,0.368c-3.148,-14.718 -18.91,-25.91 -37.881,-25.91c-9.198,-0.105 -18.197,2.706 -25.7,8.027c-9.463,-5.373 -20.183,-8.143 -31.064,-8.027c-27.824,0 -50.377,16.9 -50.377,37.749c-0.136,4.775 1.348,9.459 4.208,13.286l-84.108,16.683l315.012,0Z" style="fill:#e2f1ff;fill-rule:nonzero;"/><g id="Raggruppa_243"><path id="Tracciato_6951" d="M1860.34,398.965c-11.532,14.85 -40.122,23.232 -66.613,21.624c58.493,-13.86 90.424,-42.555 68.527,-107.236c9.2,14.395 22.6,54.046 -1.914,85.61l0,0.002Z" style="fill:#d0d3d6;fill-opacity:0.32;fill-rule:nonzero;"/><path id="Tracciato_6989" d="M1779.1,391.685c-13.393,0.461 -32.843,-7.324 -47.423,-20.579c39.368,19.44 75.4,21.569 89.454,-25.145c-6.8,38.242 -29.138,45.278 -42.031,45.724Z" style="fill:#d0d3d6;fill-opacity:0.32;fill-rule:nonzero;"/><g id="Raggruppa_243-2"><path id="Tracciato_6944" d="M1749.55,189.195c12.647,20.38 39.182,63.9 55.886,79.424c15.051,13.983 33.607,26.683 38.78,29.654c-1.191,12.07 -2.143,23.073 -6.028,27.3c-10.9,-3.133 -45.98,-7.78 -48.465,8.077c-0.594,3.789 0.674,8.75 4.578,15.182c-4.847,6.291 -16.538,14.724 -33.611,16.114c-5.375,-0.645 -12.566,-3.216 -19.371,-7.193c-12.242,-7.157 -35.026,-17 -41.684,-21.615c-6.311,-29.26 4.59,-64.542 -1.721,-93.8c-5.738,-21.804 -15.671,-46.402 -21.412,-68.203c25.519,-7.659 57.9,-1.459 73.048,15.06Z" style="fill:#d1d2d2;fill-rule:nonzero;"/><path id="Tracciato_6945" d="M1794.53,349.357c-16.194,-32.841 -32.318,-77.556 -46.576,-111.768c5.167,34.35 16.138,91.077 16.353,126.936c10.903,-1.546 21.647,-6.054 30.223,-15.168Z" style="fill:#babcbd;fill-rule:nonzero;"/><path id="Tracciato_6946" d="M1790.56,341.017c-9.84,-21.274 -21.094,-50 -31.024,-75.335c-5.819,-14.854 -11.315,-28.877 -16.099,-40.354c-0.366,-4.362 -0.188,-8.752 0.53,-13.07c0.814,-4.94 2.2,-8.7 3.9,-10.58c0.686,-0.872 1.72,-1.402 2.829,-1.45c1.461,0.139 2.811,0.843 3.761,1.961c5.457,11.146 12.817,23.36 22.5,37.341c8.522,12.3 17.615,24.245 26.408,35.792c7.23,9.494 14.058,18.46 19.993,26.878c6.666,9.455 11.233,16.841 14.374,23.246c-7.822,-1.967 -15.853,-2.98 -23.918,-3.018c-6.54,0 -11.883,0.791 -15.882,2.352c-4.82,1.882 -7.583,4.865 -8.21,8.868c-0.302,2.487 -0.015,5.011 0.839,7.366l-0.001,0.003Z" style="fill:#d1d2d2;fill-rule:nonzero;"/><path id="Tracciato_6947" d="M1749.55,189.187c12.647,20.382 39.182,63.91 55.887,79.431c15.051,13.985 33.607,26.685 38.78,29.656c4.469,17.476 1.034,35.355 -4.971,38.8c-36.07,-46.757 -62.935,-86.738 -91.354,-149.247c0.565,0.453 1.117,0.906 1.658,1.36Z" style="fill:#e7e9e5;fill-rule:nonzero;"/></g><path id="Tracciato_6948" d="M1719.43,176.742l-5.965,134.3l15.059,1.4l0.871,-2.5l2.64,-22.592l-1.425,-17.267l9.563,-9.766l12.366,-23.757l5.116,-16.909l0.924,-22.9l-15.714,-14.759l-23.435,-5.25Z" style="fill:#eb6300;fill-rule:nonzero;"/><path id="Tracciato_6949" d="M1666.64,151.851c-39.756,-10.059 -71.515,0.1 -94.246,49.966c1.344,-14.724 8.274,-34.236 15.909,-44.171c12.727,-12.303 36.204,-28.285 78.337,-5.795Z" style="fill:#d0d3d6;fill-opacity:0.32;fill-rule:nonzero;"/><path id="Tracciato_6950" d="M1585.09,213.631c6.246,-14.736 20.282,-26.391 42.31,-35.753c-49.236,37.614 -43.553,72.4 -10.542,104.465c-13.421,-6.714 -27.736,-17.009 -33.011,-32.065c-5.275,-15.056 -4.769,-22.462 1.243,-36.647Z" style="fill:#d0d3d6;fill-opacity:0.32;fill-rule:nonzero;"/><path id="Tracciato_6952" d="M1666.53,282.968c-7.117,0.216 -56.757,8.143 -63.493,11.38c-3.044,3.019 -7.577,7.779 -4.57,12.736c8.537,7.151 27.216,14.389 37.125,18.4c10.96,4.433 37.283,0.172 41.807,-1.356c8.508,-2.875 22.409,-15.894 22.946,-20.327c-15.475,-1.442 -17.801,-20.395 -32.427,-24.217l-1.388,3.384Z" style="fill:#f58600;fill-rule:nonzero;"/><path id="Tracciato_6953" d="M1605.9,310.212c8.956,5.777 22.682,12.247 30.911,15.578c5.061,2.048 13.734,0.774 18.384,0.813c4.4,0.037 14.144,-2.146 18.424,-2.456c-11.867,-3.327 -25.591,-3.9 -36.67,-10.044c-10.24,-5.676 -20.325,-10.776 -24.84,-11.976c-2.591,1.325 -7.643,3.416 -6.705,7.189l0.496,0.896Z" style="fill:#eb6300;fill-rule:nonzero;"/><path id="Tracciato_6954" d="M1600.44,298.386c-2.144,1.964 -3.245,7.887 -1.339,11.274c6.333,6.465 13.768,14.578 19.959,21.566c11.114,12.545 29.414,30.487 38.147,42.56l4.865,-5.847c-7.506,-14.453 -4.28,-24.38 -16.531,-45.536c-2.819,-2.809 -9.751,-7.783 -13.178,-10.687c-9.124,-7.73 -20.957,-11.977 -31.923,-13.33Z" style="fill:#f58600;fill-rule:nonzero;"/><path id="Tracciato_6955" d="M1619.52,331.646c13.989,15.8 27.849,30.776 37.5,43.809l6.916,-6.662c-10.85,-20.611 -5.716,-29.696 -17.953,-45.621c-5.946,4.518 -18.363,7.107 -26.463,8.474Z" style="fill:#232d36;fill-rule:nonzero;"/><path id="Tracciato_6956" d="M1658.45,360.26c4.716,-0.272 7.023,-0.256 9.241,2.444c3.414,4.159 1.589,2.534 2.482,7.654c0.351,1.684 1.117,3.254 2.227,4.568c3.447,4.5 3.881,11.479 2,17.588c-0.661,2.142 -2.25,4.223 -4.177,4.231c-1.127,-0.558 -1.857,-2.225 -3.621,-4.809c-1.835,-2.687 -4.208,-8.625 -6.033,-11.495c-1.405,-2.212 -2.915,-3.715 -3.547,-4.985c0.068,-4.445 -0.137,-9.971 1.427,-15.196l0.001,0Z" style="fill:#232d36;fill-rule:nonzero;"/><path id="Tracciato_6957" d="M1748.05,190.385c-4.968,-5.289 -17.543,-9.876 -17.543,-9.876l-19.271,-6.838l-12.223,-2.28c0,0 -10.638,1.382 -15.473,1.934c-7.095,3.671 -10.108,2.445 -26.684,10.734l-8.943,6.098c-7.4,12.489 11.73,50.855 11.73,50.855l12.02,22.378c0,0 -5.309,22.32 -8.591,37.809c6.63,3.315 61.942,4.2 61.942,4.2l4.766,0.585l0.815,-15.016l-7.549,-33.655l13.053,-28.526l2.693,-4.973c1.273,-14.723 11.054,-18.546 9.259,-33.429l-0.001,0Z" style="fill:#f58600;fill-rule:nonzero;"/><path id="Tracciato_6958" d="M1751.57,386.679c-1.807,-5.469 -12.938,-25.935 -12.938,-25.935l-6.04,-41.583l-8.579,-40.151l-27.722,6.955l-8.312,17.007c2.923,14.189 8.138,27.808 15.44,40.32c5.087,8.7 7.219,12.311 12.963,21.748c2.832,4.654 6.681,11.522 7.3,19.442c-0.258,9.6 4.219,19.633 4.219,19.633c7.642,0.84 17.719,0 27.16,-0.824c-0.612,-5.639 -1.781,-11.203 -3.488,-16.612l-0.003,0Z" style="fill:#f58600;fill-rule:nonzero;"/><path id="Tracciato_6959" d="M1653.13,204.82l0.383,7.024l4.51,11.168l29.1,5.015l-16.456,1.928l-12.782,0.165c-1.818,-0.472 -3.212,-1.947 -3.58,-3.789l-2.875,-14.174l1.7,-7.337Z" style="fill:#eb6300;fill-rule:nonzero;"/><path id="Tracciato_6960" d="M1736.16,211.747l-7.54,10.018l-12.662,-5.191l-21.544,12.391l-4.507,-1.086l3.865,3.445l-0.81,5.093l24.969,-1.37c2,0.047 6.639,-1.575 9.789,-2.926l4.8,-11.556l3.64,-8.818Z" style="fill:#eb6300;fill-rule:nonzero;"/><path id="Tracciato_6961" d="M1691.99,317.921c0.943,-8.9 12,-19.07 16.16,-22.649c9.387,-8.079 21.63,-7.935 21.63,-7.935l-1.236,-6.323l-33.507,15.8l-4.125,17.74l1.078,3.367Z" style="fill:#eb6300;fill-rule:nonzero;"/><path id="Tracciato_6962" d="M1671.15,207.309l12.223,-3.1l3.937,1.447l-16.16,1.653Z" style="fill:#eb6300;fill-rule:nonzero;"/><path id="Tracciato_6963" d="M1703.64,172.829l-5.59,9.949l0.752,-8.9l4.838,-1.049Z" style="fill:#cb7d35;fill-rule:nonzero;"/><path id="Tracciato_6964" d="M1671.67,258.415l9.945,-11.6l15.745,-0.414c0,0 11.188,9.114 10.773,10.356c-3.315,-0.829 -14.088,-5.8 -14.088,-5.8l-9.115,1.244l-13.26,6.214Z" style="fill:#eb6300;fill-rule:nonzero;"/><path id="Tracciato_6965" d="M1675.29,258.728l4.35,0.207l7.666,-3.319l-1.036,3.734c0,0 -6.006,2.279 -7.25,2.279c-1.183,-1.042 -2.429,-2.011 -3.73,-2.901Z" style="fill:#eb6300;fill-rule:nonzero;"/><path id="Tracciato_6966" d="M1701.04,259.036l-6.766,0.621l-4.147,-2.828l0.558,3.864c0,0 4.971,2.21 6.214,2.21c1.655,-0.415 4.141,-3.867 4.141,-3.867Z" style="fill:#eb6300;fill-rule:nonzero;"/><path id="Tracciato_6967" d="M1729.57,368.355l-3.149,1.862l-5.677,-0.87l5.375,6.38c0,0 3.275,0.734 4.845,-1.21c-0.593,-2.023 -1.059,-4.081 -1.394,-6.162Z" style="fill:#eb6300;fill-rule:nonzero;"/><path id="Tracciato_6968" d="M1752.03,194.83l-3.591,-2.482l-0.829,1.382l-1.315,-3.9l3.663,1.137l2.072,3.863Z" style="fill:#eb6300;fill-rule:nonzero;"/><path id="Tracciato_6969" d="M1685.19,267.001l-10.908,3.454l6.9,0.968l4.008,-4.422Z" style="fill:#eb6300;fill-rule:nonzero;"/><path id="Tracciato_6970" d="M1720.42,269.211l-42.81,-9.531l14.378,10.318l19.966,3.523l8.466,-4.31Z" style="fill:#eb6300;fill-rule:nonzero;"/><path id="Tracciato_6971" d="M1709.53,341.242l9.627,11.187l6.252,4.819l-10.872,-1.684l-13.036,-32.1l8.029,17.778Z" style="fill:#eb6300;fill-rule:nonzero;"/><path id="Tracciato_6972" d="M1668.15,278.439c0,0 21.023,-1.088 26.833,-1.348c11.328,-0.5 32.894,1.036 32.894,1.036c0.467,1.348 0.814,2.735 1.036,4.144c-31.005,8.631 -37.727,33.1 -37.727,33.1l-2.634,-0.508l-12.158,-18.013l-9.869,-13.885l1.625,-4.526Z" style="fill:#232d36;fill-rule:nonzero;"/><path id="Tracciato_6973" d="M1609.17,307.088l-1.28,5.181l-4.086,0.167l3.241,2.952c1.187,0.863 2.688,1.179 4.122,0.869c-0.252,-1.441 -1.997,-9.169 -1.997,-9.169Z" style="fill:#eb6300;fill-rule:nonzero;"/><path id="Tracciato_6974" d="M1660.26,360.846c1.452,-0.194 2.928,-0.119 4.353,0.22c1.096,0.364 3.367,3.159 3.367,3.159c0,0 -1.413,1.571 -3.146,-0.738c-1.495,-1.992 -4.574,-2.641 -4.574,-2.641Z" style="fill:#3b424c;fill-rule:nonzero;"/><path id="Tracciato_6975" d="M1727.46,403.248c9.493,18.847 19.07,36.871 25.075,51.939l8.388,-4.676c-5.233,-22.7 2.054,-30.176 -5.717,-48.7c-6.903,2.85 -19.573,2.182 -27.746,1.437Z" style="fill:#232d36;fill-rule:nonzero;"/><path id="Tracciato_6976" d="M1758.15,444.13c4.631,0.942 6.858,1.547 8.314,4.723c2.241,4.893 0.891,2.856 0.447,8.034c-0.09,1.718 0.25,3.432 0.988,4.986c2.185,5.23 0.823,12.089 -2.56,17.516c-1.185,1.9 -3.254,3.509 -5.119,3.024c-0.948,-0.827 -1.228,-2.625 -2.275,-5.574c-1.087,-3.063 -1.865,-9.409 -2.897,-12.655c-0.794,-2.498 -2.735,-8.873 -3.02,-10.262c1.2,-4.282 3.275,-5.141 6.122,-9.792Z" style="fill:#232d36;fill-rule:nonzero;"/><path id="Tracciato_6977" d="M1760.5,445.88c1.453,0.183 2.859,0.632 4.15,1.324c0.968,0.629 2.45,3.908 2.45,3.908c0,0 -1.764,1.157 -2.85,-1.516c-0.938,-2.307 -3.75,-3.716 -3.75,-3.716Z" style="fill:#3b424c;fill-rule:nonzero;"/><g id="Raggruppa_247"><path id="Tracciato_6978" d="M1664.46,181.26c-16.461,0.531 -21.008,11.931 -22.712,21.054c-9.56,7.278 -11.437,19.846 -9.949,30.857c-3.033,8.789 -0.688,19.759 0.24,23.181c19.808,8.385 19.929,9.595 43.25,2.656c-9.275,-9.3 -14.32,-17.32 -25.1,-25.82c0.862,-1.369 4.45,-2.485 5.311,-3.855c0.571,-23.045 2.229,-28.686 8.96,-48.073Z" style="fill:#f58600;fill-rule:nonzero;"/><path id="Tracciato_6979" d="M1648.66,233.087c6.57,3.777 12.24,11.713 17.9,17.707c7.789,8.243 12.041,10.8 17.415,13.819c8.912,5.012 18.669,5.465 35.966,6.437c3.971,-2.928 7.671,-5.572 11.635,-8.498c6.885,-4.586 9.956,-7.975 12.652,-12.193c2.679,-4.187 7.121,-13.865 9.044,-25.627c9.74,-16.694 1.35,-36.98 -14.46,-37.08c-15.705,-0.093 -20.3,21.919 -22.81,34.307c-1.307,6.461 -1.157,13.407 -2.651,19.485c-5.969,-3.738 -19.126,-5.728 -32.916,-6.618c-7.889,-0.509 -15.884,-5.383 -21.242,-6.892c-6.926,0.229 -11.061,2.418 -10.533,5.153Z" style="fill:#f58600;fill-rule:nonzero;"/><path id="Tracciato_6980" d="M1748.82,240.947c2.044,-5.237 3.537,-10.672 4.454,-16.218c4.336,-7.175 5.319,-15.901 2.687,-23.861c0.295,9.862 -1.646,19.158 -7.911,23.374c1.136,5.313 1.069,11.632 0.771,16.7l-0.001,0.005Z" style="fill:#eb6300;fill-rule:nonzero;"/><path id="Tracciato_6981" d="M1657.62,263.251c6.141,-0.783 9.725,-1.878 17.667,-4.242c-3.199,-3.209 -6.137,-6.434 -9.047,-9.579c-3.6,-3.888 -7.208,-7.555 -10.823,-11c-3.427,4.941 -4.766,7.323 -4.118,14.421c0.357,3.9 2.6,7.419 6.321,10.4Z" style="fill:#232d36;fill-rule:nonzero;"/><path id="Tracciato_6982" d="M1652.63,242.89c0.793,-1.568 1.725,-3.06 2.787,-4.46c3.606,3.455 7.213,7.121 10.82,11c2.913,3.148 5.851,6.372 9.05,9.58c-1.508,0.449 -1.018,0.311 -2.259,0.675c-5.053,-2.464 -17.956,-13.994 -20.398,-16.795Z" style="fill:#3b424c;fill-rule:nonzero;"/><path id="Tracciato_6983" d="M1654.14,240.229c-2.732,-1.738 -7.919,-5.203 -14.684,-4.686c1.747,-1.64 5.378,-2.724 8.618,-2.652c3.902,0.1 7.573,1.56 11.123,1.657c-1.884,1.707 -3.58,3.612 -5.057,5.681Z" style="fill:#eb6300;fill-rule:nonzero;"/><path id="Tracciato_6984" d="M1655.64,228.235c-0.08,0.113 -0.258,0.095 -0.336,0.209c-2.56,0.847 -4.824,2.412 -6.522,4.507c-0.406,-0.039 -0.814,-0.06 -1.223,-0.06c-0.729,-0.001 -1.457,0.054 -2.177,0.164c4.829,-5.9 6.314,-13.634 5.554,-21.244c2.829,-3.16 4.032,-3.697 6.063,-10.736c1.919,4.02 -2.047,17.49 -1.358,27.156l-0.001,0.004Z" style="fill:#eb6300;fill-rule:nonzero;"/><path id="Tracciato_6985" d="M1655.95,228.795c13.085,4.643 17.515,5.763 29.283,13.161c12.637,-3.645 19.188,-4.449 32.393,4.141c1.332,-11.665 1.284,-16.948 10.409,-28.57c-2.815,-4.883 -4.689,-10.252 -5.525,-15.826c-2.415,8.882 -4.54,16.749 -7.22,24.833c-0.612,5.074 -0.79,10.248 -1.935,14.91c-5.97,-3.743 -19.128,-5.729 -32.919,-6.619c-7.891,-0.509 -16.653,-4.973 -22.01,-6.482c-0.836,0.084 -1.664,0.236 -2.476,0.452Z" style="fill:#eb6300;fill-rule:nonzero;"/><path id="Tracciato_6986" d="M1648.66,233.086c6.57,3.778 12.241,11.711 17.9,17.703c7.79,8.242 12.044,10.793 17.418,13.816l0.29,0.16c-1.8,-3.837 -2.697,-8.036 -2.622,-12.273c0.294,-9.3 5.954,-14.172 12.131,-16.408c-4.215,-0.565 -8.984,-0.857 -13.447,-2c-7.36,-1.889 -14.746,-4.692 -20.1,-6.2c-7.285,-0.237 -9.232,2.58 -11.57,5.202Z" style="fill:#232d36;fill-rule:nonzero;"/><path id="Tracciato_6987" d="M1685.25,241.959c2.256,-2.714 5.219,-4.753 8.56,-5.89c-4.213,-0.566 -9.024,-0.843 -13.485,-1.989c-7.357,-1.89 -14.741,-4.695 -20.094,-6.202c-1.584,0.029 -3.161,0.235 -4.7,0.612c12.433,4.41 18.486,6.455 29.719,13.469Z" style="fill:#3b424c;fill-rule:nonzero;"/><path id="Tracciato_6988" d="M1704.5,227.253c-1.531,1.49 -8.606,7.385 -10.122,8.929c4.001,0.485 7.958,1.283 11.834,2.386c1.195,0.072 3.38,1.426 5.257,2.457c0.821,0.4 1.549,0.741 2.663,1.238c1.071,0.476 1.625,-0.791 2.493,-0.775c0.881,-0.264 2.484,1.429 3.092,1.177c1.285,-0.541 2.401,-1.418 3.23,-2.539c-0.139,-1.153 -0.342,-3.1 -0.641,-4.674c-1.087,-1.29 -4.169,-4.654 -4.983,-5.5c0.512,-0.09 1.03,-0.137 1.55,-0.139c1.744,1.635 4.355,5.045 4.416,5c0.412,-0.283 0.412,-0.314 0.924,-0.688c-0.065,-1.1 -1.017,-2.967 -1.1,-4.149c-1.435,-1.834 -3.016,-3.549 -4.728,-5.128c-4.674,-0.33 -9.361,-0.171 -13.885,2.405Z" style="fill:#232d36;fill-rule:nonzero;"/></g><g id="Raggruppa_249"><path id="Tracciato_6990" d="M1690.35,191.727c-8.05,2.386 -10.7,3.432 -11.835,6.882c-0.84,2.572 -1.891,6.529 1.937,13.118l9.898,-20Z" style="fill:#232d36;fill-rule:nonzero;"/><path id="Tracciato_6991" d="M1689.6,191.551c11.694,11.538 9.166,16.368 0,25.722c-0.373,-4.243 -0.83,-8.131 -1.014,-11.991c-0.285,-4.602 0.056,-9.221 1.014,-13.731Z" style="fill:#232d36;fill-rule:nonzero;"/></g><g id="Raggruppa_253"><g id="Raggruppa_250"><path id="Tracciato_6992" d="M1681.43,164.545l24.954,-12.948l-9.4,5.113l-15.554,7.835Z" style="fill:#e79b54;fill-rule:nonzero;"/><path id="Tracciato_6993" d="M1680.5,172.47l0,-7.456l0.931,-0.471l-0.831,7.984l-0.1,-0.057Z" style="fill:#cb7d35;fill-opacity:0.85;fill-rule:nonzero;"/><path id="Tracciato_6994" d="M1680.6,172.527l0.829,-7.986l15.551,-7.838l9.405,-5.11l5.729,-2.966l0.051,16.562l0.024,8.076c-0.007,1.763 -0.391,3.505 -1.126,5.107c-6.448,2.7 -16.147,9.4 -22.639,12.275c-1.963,-3.474 -5.578,-7.389 -8.444,-12.12l0.62,-6Z" style="fill:#e79b54;fill-rule:nonzero;"/><path id="Tracciato_6995" d="M1682.99,173.849l-2.383,-1.322l0.829,-7.986l15.554,-7.838l9.406,-5.11l5.728,-2.966l0.051,16.563l-9.81,10.418l-19.375,-1.759Z" style="fill:#cb7d35;fill-opacity:0.85;fill-rule:nonzero;"/></g><path id="Tracciato_6996" d="M1714.95,136.254c-0.026,0.556 -0.168,1.851 0.824,2.165c-0.37,1.791 -0.862,3.554 -1.473,5.277c-2.64,7.458 -2.936,8.842 -4.581,13.753c-2.753,4.517 -2.368,8.434 -3.681,10.858c-0.982,0.17 -6.835,2.661 -9.462,2.964c-5.96,-0.1 -14.3,-0.991 -17.073,-1.717c-0.36,-0.176 -2.038,-1.37 -5.147,-3.235c-0.728,-2.4 -0.622,-6.01 -1.24,-9.948c1.615,-2.222 2.693,-3.73 4.369,-5.911c0.949,-1.612 1.529,-3.311 2.191,-4.588c-0.053,-1.346 -0.2,-2.674 -0.137,-4.7c0.8,-1.89 2.806,-5.847 3.806,-8.158l2.084,-9.158c0.191,-1.055 0.261,-2.129 0.207,-3.2c11.623,-2.3 26.917,0.706 29.312,15.6l0.001,-0.002Z" style="fill:#eab070;fill-rule:nonzero;"/><path id="Tracciato_6997" d="M1684.04,135.709l-0.906,1.858l0.524,1.79l2.245,1.33l2.081,0.655l1.292,-2.717l0.089,-3.474l-5.325,0.558Z" style="fill:#d38e4f;fill-rule:nonzero;"/><path id="Tracciato_6998" d="M1692.8,102.411c0.073,2.02 -0.053,5.8 4.875,7.352c7.984,2.512 12.271,5.52 16.378,7.563c2.419,1.818 4.693,3.822 6.8,5.994c0.412,5.24 -2.155,7.742 -2.155,7.742c-0.191,2.551 -2.218,5.849 -3.47,9.942c-0.993,-0.314 -3.095,-0.332 -3.068,-0.888c-0.169,-4.24 0.518,-7.338 -1.22,-10.712c-2.472,-0.956 -5.082,-1.51 -7.729,-1.641c-5.043,0.694 -11.1,3.067 -18.534,-2.655c-4.972,-6.107 -8.316,-19.21 8.123,-22.697Z" style="fill:#1e1612;fill-rule:nonzero;"/><path id="Tracciato_6999" d="M1718.72,139.962c-0.467,-2.53 -2.469,-2.039 -3.268,-1.742c-1.182,0.384 -2.096,1.337 -2.43,2.535c-0.473,0.999 -0.664,2.108 -0.552,3.207l0.23,6.05l2.229,-0.511c0,0 4.027,-8.251 3.791,-9.539Z" style="fill:#eab070;fill-rule:nonzero;"/><path id="Tracciato_7000" d="M1683.4,134.609l4.631,-2.165l1.528,2.584l-6.041,0.849l-0.118,-1.268Z" style="fill:#2f2622;fill-rule:nonzero;"/><path id="Tracciato_7001" d="M1703.16,149.189l-9.966,2.038l-8.263,-1.317l-3.304,-3.383c0,0 -0.571,8.084 0.853,10.212c1.719,2.57 7.956,4.222 11.923,1.865c2.678,-1.591 8.757,-9.416 8.757,-9.416l0,0.001Z" style="fill:#fff;fill-rule:nonzero;"/><path id="Tracciato_7002" d="M1693.68,145.859l-7,-0.814l1.85,2.522l1.817,0.74l3.333,-2.448Z" style="fill:#cb7d35;fill-rule:nonzero;"/><path id="Tracciato_7003" d="M1698.21,135.344l-3.458,0.125l-0.007,3.881l1.494,3.71l6.5,-1.076l1.89,-1.63l0.134,-2.817l-6.553,-2.193Z" style="fill:#d38e4f;fill-rule:nonzero;"/><path id="Tracciato_7004" d="M1699.41,137.903l-3.374,-0.236l-0.6,1.021l7.384,1.662l-3.41,-2.447Z" style="fill:#382625;fill-rule:nonzero;"/><path id="Tracciato_7005" d="M1704.31,136.055l-8.137,-3.433l-1.284,2.893l9.332,2.387l0.089,-1.847Z" style="fill:#2f2622;fill-rule:nonzero;"/><path id="Tracciato_7006" d="M1688.74,137.435l-2.17,-0.426l-2.613,1.273l5.119,0.053l-0.336,-0.9Z" style="fill:#382625;fill-rule:nonzero;"/><path id="Tracciato_7007" d="M1712.83,143.567c0.516,-1.17 3.889,-3.729 3.889,-3.729l-0.043,2.336l-1.982,5.125l-0.932,-1.245l-1.868,1.659c0,0 2.08,-3.338 0.936,-4.146Z" style="fill:#d38e4f;fill-rule:nonzero;"/><path id="Tracciato_7008" d="M1689.31,163.249l-5.388,-0.412l1.246,1.658l1.864,0.208l2.278,-1.454Z" style="fill:#d38e4f;fill-rule:nonzero;"/><path id="Tracciato_7009" d="M1715.12,138.179c0,0 -14.033,-5.437 -22.554,-6.175c-3.244,-0.347 -6.524,-0.119 -9.688,0.675l-2.924,6.423c0,0 0.886,3.141 3.521,3.306c1.576,0.1 4.49,-1.787 6.374,-1.7c1.53,0.067 2.99,2.937 8.729,3.594c2.3,0.264 6.628,-2.161 8.587,-2.711c1.86,-0.277 3.744,-0.351 5.619,-0.221l2.336,-3.191Z" style="fill:#232d36;fill-rule:nonzero;"/><path id="Tracciato_7010" d="M1705.39,138.129c0.004,-1.661 -6.151,-2.481 -6.151,-2.481c0,0 -4.903,-0.145 -5.336,1.223c-0.452,1.435 2.096,3.677 3.363,3.977c2.444,0.576 8.12,-0.661 8.124,-2.719Z" style="fill:#eab070;fill-rule:nonzero;"/><path id="Tracciato_7011" d="M1689.32,136.986c-0.262,0.8 -2.491,1.654 -3.535,2.022c-2.838,0.995 -4.247,-0.646 -3.936,-1.865c0.206,-0.769 0.787,-1.384 1.544,-1.633c1.157,-0.53 2.458,-0.667 3.7,-0.388c1.349,0.388 2.514,0.993 2.227,1.864Z" style="fill:#eab070;fill-rule:nonzero;"/><path id="Tracciato_7012" d="M1703.09,139.593l-3.348,-2.517l-4.628,0.375l7.976,2.142Z" style="fill:#1e1612;fill-rule:nonzero;"/><path id="Tracciato_7013" d="M1687.97,137.351l-2.867,-1.242l-2.628,1.449l5.495,-0.207Z" style="fill:#1e1612;fill-rule:nonzero;"/><path id="Tracciato_7014" d="M1696.23,153.692c-0.152,0.056 -5.812,0.4 -5.812,0.4l-7.34,-1.281l4.441,1.858l4.854,-0.036l3.857,-0.941Z" style="fill:#cac1ca;fill-rule:nonzero;"/><path id="Tracciato_7015" d="M1683.26,145.62l-2.304,-0.183l-0.968,3l1.821,-1.821l1.451,-0.996Z" style="fill:#d38e4f;fill-rule:nonzero;"/><path id="Tracciato_7016" d="M1703.28,152.627l3.023,-4.29l-6.944,-1.772l3.6,2.428l0.321,3.634Z" style="fill:#d38e4f;fill-rule:nonzero;"/><path id="Tracciato_7017" d="M1711.9,162.378l-2.069,9.743l-0.415,-8.087l2.484,-1.656Z" style="fill:#cb7d35;fill-rule:nonzero;"/><path id="Tracciato_7018" d="M1704.41,173.359l-5.6,9.949l0.753,-8.9l4.847,-1.049Z" style="fill:#cb7d35;fill-rule:nonzero;"/><path id="Tracciato_7019" d="M1700.57,110.974c0,0 -3.472,-0.859 -4.286,-1.8c-2.431,-1.043 -3.861,0.942 -4.89,1.239c-3.173,0.922 -2.588,-0.864 -3.484,-0.839c-2.759,0.069 -1.832,2.193 -2.864,2.387c-1.412,0.077 -2.828,0.024 -4.23,-0.16c-1.402,-0.184 -0.66,6.213 0.829,7.182c0.989,0.644 2.924,-0.835 4.675,0.642c0.9,0.763 1.3,-1.9 4.642,-0.879c1.063,0.325 1.038,-3.616 2.108,-3.919c0.952,-0.269 2.585,1.043 3.524,0.729c0.908,-0.305 3.976,-4.582 3.976,-4.582Z" style="fill:#434140;fill-opacity:0.52;fill-rule:nonzero;"/><path id="Tracciato_7020" d="M1710.5,128.877l0.25,-0.331l-12.933,-9.7c-6.719,-5.035 -8.812,-10.242 -6.4,-15.916l-0.385,-0.16c-2.5,5.874 -0.36,11.242 6.533,16.41l12.935,9.697Z" style="fill:#59524e;fill-opacity:0.36;fill-rule:nonzero;"/><path id="Tracciato_7021" d="M1692.28,128.581c0,0 0,0 0,0c0.114,0 0.207,-0.093 0.207,-0.207c0,-0.056 -0.022,-0.109 -0.062,-0.148c-0.135,-0.137 -13.797,-13.747 -6.468,-22.654c0.03,-0.037 0.047,-0.084 0.047,-0.131c0,-0.114 -0.094,-0.208 -0.208,-0.208c-0.062,0 -0.121,0.028 -0.16,0.076c-7.569,9.2 6.361,23.074 6.5,23.212c0.039,0.038 0.091,0.06 0.145,0.06l-0.001,0Z" style="fill:#59524e;fill-opacity:0.63;fill-rule:nonzero;"/><path id="Tracciato_7022" d="M1708.91,149.039l-1.984,3.854l-2.074,4.146l3.367,-2.34l0.691,-5.66Z" style="fill:#d38e4f;fill-rule:nonzero;"/><path id="Tracciato_7023" d="M1689.71,169.653l-2.426,2.221l-5.86,-0.706l-1.006,-2.932l9.292,1.417Z" style="fill:#eab070;fill-rule:nonzero;"/><path id="Tracciato_7024" d="M1685.64,168.845l-1.015,-1.081l-0.537,1.821l0.4,0.741l1.152,-1.481Z" style="fill:#d38e4f;fill-rule:nonzero;"/></g><path id="Tracciato_7025" d="M1680.6,172.619l-0.623,6.007c2.869,4.735 6.484,8.65 8.447,12.119c6.491,-2.873 16.19,-9.577 22.639,-12.274c0.735,-1.602 1.119,-3.343 1.126,-5.106l0,-1.626c3.413,0.461 6.786,1.176 10.092,2.14c3.077,0.832 6.098,1.862 9.042,3.084l-0.81,0.414l0.031,0.017c-0.333,0.155 -0.676,0.319 -1.029,0.493l-0.069,0.035c-10.88,5.423 -28,19.6 -41.226,16.509c-0.484,-0.058 -0.971,-0.133 -1.462,-0.224c-6.213,-1.157 -13.821,-4.99 -14.958,-19.084c2.816,-1.202 5.773,-2.044 8.8,-2.504Z" style="fill:#232d36;fill-rule:nonzero;"/></g></g></g><defs><linearGradient id="_Linear2" x1="0" y1="0" x2="1" y2="0" gradientUnits="userSpaceOnUse" gradientTransform="matrix(4.19197e-14,684.6,-684.6,4.19197e-14,957.061,0)"><stop offset="0" style="stop-color:#fff;stop-opacity:1"/><stop offset="1" style="stop-color:#e2f1ff;stop-opacity:1"/></linearGradient></defs></svg>