<svg id="Raggruppa_196" data-name="Raggruppa 196" xmlns="http://www.w3.org/2000/svg" width="318.428" height="346.794" viewBox="0 0 318.428 346.794">
  <g id="Raggruppa_183" data-name="Raggruppa 183" transform="translate(146.563 69.319)">
    <path id="Tracciato_285" data-name="Tracciato 285" d="M-4000.586,315.636c12.8,20.634,39.671,64.7,56.583,80.418,15.239,14.159,34.026,27.016,39.264,30.024-1.207,12.221-2.17,23.363-6.1,27.641-11.039-3.171-46.554-7.876-49.07,8.178-.6,3.837.682,8.86,4.635,15.372-4.907,6.371-16.745,14.909-34.03,16.316-5.442-.652-12.724-3.255-19.613-7.283-12.4-7.245-35.463-17.211-42.2-21.886-6.39-29.625,4.647-65.351-1.743-94.976-5.809-22.074-15.866-46.98-21.675-69.054C-4048.708,292.627-4015.924,298.913-4000.586,315.636Z" transform="translate(4074.542 -297.091)" fill="#d1d2d2" fill-rule="evenodd"/>
    <path id="Tracciato_286" data-name="Tracciato 286" d="M-3977.7,476.97c-16.4-33.25-32.727-78.525-47.161-113.166,5.229,34.782,16.338,92.217,16.556,128.523C-3997.265,490.762-3986.38,486.2-3977.7,476.97Z" transform="translate(4097.204 -296.258)" fill="#babcbd" fill-rule="evenodd"/>
    <path id="Tracciato_287" data-name="Tracciato 287" d="M-3972.39,453.224c-11.529-3.166-46.128-7.532-48.61,8.306a16.069,16.069,0,0,0,.854,7.474c-15.685-33.908-34.438-85.282-47.717-117.15-1.118-11.011,2.519-31.935,11.157-23.425,22.568,46.091,68.906,93.37,84.315,124.794Zm-44.1,23.478.121.2-.014.018Z" transform="translate(4135.629 -296.725)" fill="#d1d2d2" fill-rule="evenodd"/>
    <path id="Tracciato_288" data-name="Tracciato 288" d="M-4074.9,315.424c12.8,20.634,39.671,64.7,56.583,80.418,15.239,14.159,34.027,27.016,39.264,30.024,4.525,17.694,1.047,35.8-5.034,39.286-36.519-47.343-63.719-87.821-92.493-151.111Q-4075.721,314.733-4074.9,315.424Z" transform="translate(4148.854 -296.88)" fill="#e7e9e5" fill-rule="evenodd"/>
  </g>
  <g id="Raggruppa_184" data-name="Raggruppa 184" transform="translate(52.239 68.1)">
    <path id="Tracciato_289" data-name="Tracciato 289" d="M-3877.168,340.112l7.76-11.788,25.172-16.243,6.58-2.606,25.121,17.443-.414,14.619s-13.686,4.425-17.813,5.731c-17.045,18.727-36.818,14.007-54.176,18.251-3.34-2.69-4.7-3.724-10.347-11.4-1.744-3.253-7.648-17.956-9.455-21.489,6.441-.622,8.452-2.486,12.973-6.505l8.244,5.382Z" transform="translate(3904.74 -295.718)" fill="#f58600"/>
    <path id="Tracciato_290" data-name="Tracciato 290" d="M-3870.07,312.141c-4.161-1.8-14.464-7.1-14.464-7.1l-19.348-6.865-12.273-2.288s-10.678,1.386-15.532,1.941c-7.124,3.685-19.051,3.493-35.692,11.815l-7.021,9.82c-7.43,12.539,8.862,30.483,8.862,30.483l9.86,15.836,12.066,22.467s-5.33,22.408-8.625,37.957c6.657,3.329,62.19,4.219,62.19,4.219l-1.976-.988,2.773-2.358,2.774-12.759-5.548-32.173,13.106-28.638,2.7-4.993C-3874.937,333.737-3868.266,327.081-3870.07,312.141Z" transform="translate(4034.464 -295.888)" fill="#f58600"/>
  </g>
  <g id="Raggruppa_186" data-name="Raggruppa 186" transform="translate(13.382 76.595)">
    <path id="Tracciato_291" data-name="Tracciato 291" d="M-3877.406,339.666l7.76-11.788,25.173-16.244,6.58-2.606,25.121,17.443-.414,14.619s-13.687,4.425-17.813,5.731c-17.045,18.727-36.818,14.007-54.176,18.251-3.341-2.69-4.7-3.724-10.348-11.4-1.745-3.253-7.648-17.956-9.454-21.489,6.44-.622,8.452-2.486,12.973-6.505l8.244,5.382Z" transform="translate(3944.075 -304.219)" fill="#f58600"/>
    <path id="Tracciato_292" data-name="Tracciato 292" d="M-3841.065,339.216l-5.359,2.353-1.43-1.935,5.892-9.311-1.46,6.459Z" transform="translate(3914.532 -303.953)" fill="#eb6300"/>
    <path id="Tracciato_293" data-name="Tracciato 293" d="M-3878.392,340.1l-3.676-.331-1.866-4.872-1.106,7.174,2.5.267Z" transform="translate(3989.508 -303.896)" fill="#eb6300"/>
    <g id="Raggruppa_185" data-name="Raggruppa 185">
      <path id="Tracciato_294" data-name="Tracciato 294" d="M-3826.036,304.278l24.934,1.334,4.176-1.334h9.611l.669,6.629,1.462,4.97,10.592,13.032c-.341,2.648-2.522,8.3-5.631,12.505l-10.013-15.878,5.333,14.4,2.791,3.706a9.846,9.846,0,0,1-4.192,2.723c-3.885-8.3-9.2-17.238-10.884-20.975-.5-1.12-6.973-8.844-6.973-8.844l-22.311-7.6-4.92-4.67Z" transform="translate(3831.392 -304.278)" fill="#232d36"/>
      <path id="Tracciato_295" data-name="Tracciato 295" d="M-3830.421,340.956h0l6.559,9.541-6.678-4.963-1.77-2.349A20.7,20.7,0,0,0-3830.421,340.956Z" transform="translate(3881.589 -303.82)" fill="#eb6300"/>
      <path id="Tracciato_296" data-name="Tracciato 296" d="M-3825.83,325.274l10.012,15.878a20.7,20.7,0,0,1-1.888,2.228l-2.792-3.706Z" transform="translate(3866.985 -304.016)" fill="#3b424c"/>
    </g>
    <path id="Tracciato_297" data-name="Tracciato 297" d="M-3830.215,357.912l-5.2,1.742-5.219-4.817,5.836,2.679Z" transform="translate(3896.366 -303.647)" fill="#eb6300"/>
    <path id="Tracciato_298" data-name="Tracciato 298" d="M-3897.233,331.184l.815-3.887-1.394-1.519-1.925,3.753Z" transform="translate(4022.414 -304.01)" fill="#eb6300"/>
    <path id="Tracciato_299" data-name="Tracciato 299" d="M-3814.456,306.54l-3.844,1.057,1.416,1.092,3.029,2.808-.912-2.353Z" transform="translate(3857.399 -304.25)" fill="#5a1824" opacity="0.23"/>
    <path id="Tracciato_300" data-name="Tracciato 300" d="M-3858.693,344.52l-6.626,6.963-4.992.3,4.427-2.516Z" transform="translate(3954.897 -303.776)" fill="#eb6300"/>
  </g>
  <path id="Tracciato_301" data-name="Tracciato 301" d="M-3958.241,341.261c-5.184-6.221-9.122-9.538-10.919-11.611-.278-1.658-1.417-4.008-1.694-5.391-3.206-4.948-9.158-8.985-12.751-12.025-1.521-.326-3.249,0-7.671-.829-6.221-2.764-20.14-9.5-23.5-10.505,1.8,15.559,9.261,31.515,15.067,44.786l2.764,1.382,1.659,13.27,13.435,11.791-4.45,13.5c1.783,4.41-4.853,11.17-2.807,15.522l17.6-6.538a112.532,112.532,0,0,0,21.287-14.376C-3949.806,374.777-3953.472,353.7-3958.241,341.261Z" transform="translate(4206.046 -227.725)" fill="#f58600"/>
  <path id="Tracciato_302" data-name="Tracciato 302" d="M-3878.423,421.532l1.892-11.292-38.661-6.676s-10.368,33.451-14.1,50.453a251.926,251.926,0,0,0,1.935,26.954c-1.312,8.017-8.56,15.532-11.712,27.531,1.326,3.283.127,19.594,2.894,20.474,5.442,1.735,15.36-8.257,21.089-11.143a54.77,54.77,0,0,0,2.349-13.547c.829-4.7.794-11.427,2.66-17.648,2.627-7.05,11.334-21.564,15.205-29.3,3.732-7.465,11.854-30.871,11.854-30.871Z" transform="translate(4055.731 -226.444)" fill="#f58600"/>
  <path id="Tracciato_303" data-name="Tracciato 303" d="M-3930.31,500.218c-6.144-7.85-8.846-21.011-8.846-21.011a118.361,118.361,0,0,1-1.416-22.3c-2.073-6.635-4.69-15.292-7.049-20.734l-14.177-35.3-25.064,8.49-6.755,17.455s9.121,16.865,21.286,36.907c5.108,8.416,7.247,11.9,12.994,21.011a48.066,48.066,0,0,1,6.774,19.213,70.288,70.288,0,0,0,3.178,13c7.05.414,14.506,1.024,23.121-.323C-3927.1,510.816-3925.334,506.576-3930.31,500.218Z" transform="translate(4160.698 -226.477)" fill="#f58600"/>
  <g id="Raggruppa_187" data-name="Raggruppa 187" transform="translate(147.786 88.228)">
    <path id="Tracciato_304" data-name="Tracciato 304" d="M-3907.883,315.942c-8.152,2.42-10.833,3.479-11.979,6.972-.854,2.605-1.918,6.612,1.958,13.287Z" transform="translate(3920.672 -315.765)" fill="#232d36" fill-rule="evenodd"/>
    <path id="Tracciato_305" data-name="Tracciato 305" d="M-3926.667,315.767c11.85,11.684,9.29,16.574,0,26.047-.374-4.3-.837-8.234-1.023-12.144A51.512,51.512,0,0,1-3926.667,315.767Z" transform="translate(3938.691 -315.767)" fill="#232d36" fill-rule="evenodd"/>
  </g>
  <path id="Tracciato_306" data-name="Tracciato 306" d="M-3952.728,298.841l-.632,6.083c2.905,4.8,6.564,8.759,8.553,12.272,6.571-2.909,16.392-9.7,22.92-12.428a12.532,12.532,0,0,0,1.14-5.172l-.005-1.645a70.029,70.029,0,0,1,10.218,2.166,74.625,74.625,0,0,1,9.154,3.123l-.819.418.031.018c-.34.156-.688.323-1.042.5l-.071.036c-11.014,5.491-28.349,19.843-41.739,16.715q-.736-.088-1.481-.226c-6.284-1.17-13.988-5.053-15.144-19.324A36.808,36.808,0,0,1-3952.728,298.841Z" transform="translate(4103.438 -227.762)" fill="#232d36"/>
  <g id="Raggruppa_191" data-name="Raggruppa 191" transform="translate(143.132 0)">
    <g id="Raggruppa_188" data-name="Raggruppa 188" transform="translate(6.946 46.792)">
      <path id="Tracciato_307" data-name="Tracciato 307" d="M-3936.714,290.92v0l25.268-13.1-9.522,5.174Z" transform="translate(3938.183 -274.805)" fill="#e79b54"/>
      <path id="Tracciato_308" data-name="Tracciato 308" d="M-3911.756,298.786v-7.552l.944-.476-.839,8.086Z" transform="translate(3912.281 -274.643)" fill="#cb7d35" opacity="0.85"/>
      <path id="Tracciato_309" data-name="Tracciato 309" d="M-3941.886,299.043l.839-8.087,15.747-7.934,9.522-5.174,5.8-3.007.052,16.77.024,8.176a12.517,12.517,0,0,1-1.14,5.172c-6.529,2.73-16.349,9.519-22.92,12.427-1.989-3.512-5.647-7.476-8.552-12.271Z" transform="translate(3942.516 -274.842)" fill="#e79b54"/>
      <path id="Tracciato_310" data-name="Tracciato 310" d="M-3940.079,300.383l-2.413-1.34.839-8.086,15.747-7.934,9.523-5.174,5.8-3.007.051,16.769-9.931,10.548Z" transform="translate(3943.122 -274.842)" fill="#cb7d35" opacity="0.85"/>
    </g>
    <path id="Tracciato_311" data-name="Tracciato 311" d="M-3903.745,262.674c-.026.564-.17,1.874.833,2.192a40.06,40.06,0,0,1-1.491,5.342c-2.672,7.55-2.972,8.95-4.637,13.922-2.786,4.569-2.4,8.538-3.727,10.993-.993.172-6.919,2.693-9.578,3-6.033-.1-14.472-1-17.284-1.738-.365-.178-2.064-1.387-5.211-3.275-.736-2.429-.629-6.084-1.258-10.069,1.636-2.251,2.727-3.777,4.425-5.985.961-1.632,1.548-3.35,2.218-4.644-.054-1.363-.2-2.705-.14-4.755.811-1.915,2.841-5.92,3.854-8.259l2.113-9.272a14.183,14.183,0,0,0,.21-3.245C-3921.652,244.556-3906.169,247.6-3903.745,262.674Z" transform="translate(3946.099 -228.408)" fill="#eab070"/>
    <path id="Tracciato_312" data-name="Tracciato 312" d="M-3918.777,261.932l-.913,1.883.531,1.813,2.273,1.347,2.107.663,1.3-2.752.09-3.52Z" transform="translate(3929.833 -228.218)" fill="#d38e4f"/>
    <path id="Tracciato_313" data-name="Tracciato 313" d="M-3938.878,228.627c.073,2.044-.053,5.874,4.936,7.445,8.084,2.543,12.425,5.588,16.584,7.658a58.862,58.862,0,0,1,6.887,6.068c.417,5.305-2.183,7.841-2.183,7.841-.193,2.583-2.244,5.922-3.512,10.067-1.005-.318-3.134-.337-3.107-.9-.17-4.292.524-7.43-1.234-10.847a25.193,25.193,0,0,0-7.826-1.661c-5.107.7-11.236,3.106-18.767-2.688C-3952.138,245.424-3955.524,232.156-3938.878,228.627Z" transform="translate(3958.804 -228.627)" fill="#1e1612"/>
    <path id="Tracciato_314" data-name="Tracciato 314" d="M-3942.648,266.206c-.472-2.562-2.5-2.064-3.3-1.763a3.754,3.754,0,0,0-2.458,2.566,6.136,6.136,0,0,0-.56,3.245l.233,6.125,2.256-.518S-3942.407,267.509-3942.648,266.206Z" transform="translate(3988.814 -228.183)" fill="#eab070"/>
    <path id="Tracciato_315" data-name="Tracciato 315" d="M-3919.881,260.849l4.688-2.189,1.545,2.613-6.111.86Z" transform="translate(3930.29 -228.252)" fill="#2f2622"/>
    <path id="Tracciato_316" data-name="Tracciato 316" d="M-3911.563,275.44l-10.094,2.066-8.37-1.337-3.345-3.426s-.578,8.183.864,10.336c1.742,2.6,8.059,4.272,12.075,1.888C-3917.72,283.358-3911.563,275.44-3911.563,275.44Z" transform="translate(3941.98 -228.076)" fill="#fff"/>
    <path id="Tracciato_317" data-name="Tracciato 317" d="M-3916.92,272.081l-7.086-.82,1.874,2.55,1.84.749Z" transform="translate(3937.739 -228.095)" fill="#cb7d35"/>
    <path id="Tracciato_318" data-name="Tracciato 318" d="M-3931.581,261.559l-3.5.124-.01,3.931,1.512,3.758,6.579-1.09,1.913-1.651.136-2.853Z" transform="translate(3956.991 -228.216)" fill="#d38e4f"/>
    <path id="Tracciato_319" data-name="Tracciato 319" d="M-3929.117,264.125l-3.41-.243-.612,1.035,7.474,1.677Z" transform="translate(3955.731 -228.187)" fill="#382625"/>
    <path id="Tracciato_320" data-name="Tracciato 320" d="M-3925.1,262.316l-8.232-3.478-1.3,2.931,9.445,2.42Z" transform="translate(3956.674 -228.25)" fill="#2f2622"/>
    <path id="Tracciato_321" data-name="Tracciato 321" d="M-3914.553,263.657l-2.2-.433-2.646,1.287,5.183.053Z" transform="translate(3930.365 -228.195)" fill="#382625"/>
    <path id="Tracciato_322" data-name="Tracciato 322" d="M-3946.1,269.831c.522-1.184,3.942-3.777,3.942-3.777l-.043,2.367-2.01,5.185-.945-1.258-1.887,1.678S-3944.946,270.648-3946.1,269.831Z" transform="translate(3986.311 -228.16)" fill="#d38e4f"/>
    <path id="Tracciato_323" data-name="Tracciato 323" d="M-3914.184,289.472l-5.454-.42,1.259,1.678,1.888.21Z" transform="translate(3930.581 -227.873)" fill="#d38e4f"/>
    <path id="Tracciato_324" data-name="Tracciato 324" d="M-3909.843,264.476s-14.207-5.506-22.835-6.253a28.046,28.046,0,0,0-9.809.684l-2.956,6.5s.9,3.18,3.565,3.347c1.6.1,4.546-1.809,6.454-1.725,1.548.069,3.027,2.974,8.838,3.64,2.334.267,6.71-2.188,8.694-2.745a26.325,26.325,0,0,1,5.688-.224Z" transform="translate(3952.366 -228.259)" fill="#232d36"/>
    <path id="Tracciato_325" data-name="Tracciato 325" d="M-3924.033,264.375c0-1.679-6.229-2.506-6.229-2.506s-4.964-.15-5.4,1.233c-.458,1.451,2.121,3.722,3.405,4.024C-3929.785,267.706-3924.037,266.456-3924.033,264.375Z" transform="translate(3956.709 -228.212)" fill="#eab070"/>
    <path id="Tracciato_326" data-name="Tracciato 326" d="M-3912.086,263.227c-.264.814-2.521,1.676-3.58,2.048-2.873,1.01-4.3-.653-3.985-1.887a2.391,2.391,0,0,1,1.563-1.656,5.891,5.891,0,0,1,3.742-.393C-3912.976,261.732-3911.8,262.345-3912.086,263.227Z" transform="translate(3928.497 -228.221)" fill="#eab070"/>
    <path id="Tracciato_327" data-name="Tracciato 327" d="M-3925.34,265.844l-3.392-2.552-4.685.384Z" transform="translate(3955.688 -228.194)" fill="#1e1612"/>
    <path id="Tracciato_328" data-name="Tracciato 328" d="M-3912.732,263.583l-2.9-1.259-2.656,1.469Z" transform="translate(3927.766 -228.206)" fill="#1e1612"/>
    <path id="Tracciato_329" data-name="Tracciato 329" d="M-3913.24,279.921c-.153.057-5.881.4-5.881.4l-7.431-1.295,4.5,1.877,4.911-.036Z" transform="translate(3936.635 -227.998)" fill="#cac1ca"/>
    <path id="Tracciato_330" data-name="Tracciato 330" d="M-3910.272,271.842l-2.328-.19-.982,3.037,1.844-1.839Z" transform="translate(3920.536 -228.09)" fill="#d38e4f"/>
    <path id="Tracciato_331" data-name="Tracciato 331" d="M-3932.657,278.915l3.059-4.344-7.03-1.791,3.646,2.455Z" transform="translate(3963.197 -228.076)" fill="#d38e4f"/>
    <path id="Tracciato_332" data-name="Tracciato 332" d="M-3939.708,288.593l-2.1,9.86-.419-8.181Z" transform="translate(3978.974 -227.879)" fill="#cb7d35"/>
    <path id="Tracciato_333" data-name="Tracciato 333" d="M-3929.066,299.575l-5.664,10.069.762-9Z" transform="translate(3960.743 -227.741)" fill="#cb7d35"/>
    <path id="Tracciato_334" data-name="Tracciato 334" d="M-3910.75,237.211s-3.511-.868-4.335-1.818c-2.463-1.055-3.909.955-4.952,1.255-3.212.929-2.62-.878-3.528-.855-2.793.071-1.854,2.221-2.9,2.418a23.233,23.233,0,0,1-4.284-.161s-.668,6.292.838,7.273c1,.652,2.962-.845,4.734.65.913.771,1.319-1.923,4.7-.89,1.076.328,1.051-3.662,2.134-3.969.964-.271,2.617,1.057,3.568.738C-3913.852,241.544-3910.75,237.211-3910.75,237.211Z" transform="translate(3938.544 -228.546)" fill="#434140" opacity="0.52"/>
    <g id="Raggruppa_189" data-name="Raggruppa 189" transform="translate(17.121 0.362)" opacity="0.36">
      <path id="Tracciato_335" data-name="Tracciato 335" d="M-3920.348,255.416l.252-.336-13.089-9.818c-6.8-5.1-8.92-10.37-6.478-16.113l-.387-.164c-2.528,5.946-.365,11.38,6.612,16.613Z" transform="translate(3941.069 -228.985)" fill="#59524e"/>
    </g>
    <g id="Raggruppa_190" data-name="Raggruppa 190" transform="translate(10.387 2.86)" opacity="0.63">
      <path id="Tracciato_336" data-name="Tracciato 336" d="M-3913.8,255.087a.21.21,0,0,0,.15-.062.21.21,0,0,0,0-.3c-.14-.139-13.985-13.916-6.557-22.933a.211.211,0,0,0-.029-.3.209.209,0,0,0-.3.028c-7.67,9.313,6.446,23.358,6.588,23.5A.207.207,0,0,0-3913.8,255.087Z" transform="translate(3922.815 -231.452)" fill="#59524e"/>
    </g>
    <path id="Tracciato_337" data-name="Tracciato 337" d="M-3935.127,275.254l-2.007,3.9-2.1,4.2,3.406-2.369Z" transform="translate(3971.362 -228.045)" fill="#d38e4f"/>
    <path id="Tracciato_338" data-name="Tracciato 338" d="M-3910.627,295.883l-2.455,2.25-5.931-.716-1.023-2.966Z" transform="translate(3927.427 -227.805)" fill="#eab070"/>
    <path id="Tracciato_339" data-name="Tracciato 339" d="M-3914.394,295.071l-1.022-1.091-.545,1.841.409.75Z" transform="translate(3927.068 -227.811)" fill="#d38e4f"/>
  </g>
  <path id="Tracciato_340" data-name="Tracciato 340" d="M-3918.794,339.507l2.142,6.7,7.189,9.676,29.441-2.488-15.444,6.019-12.338,3.38a4.912,4.912,0,0,1-4.422-2.764l-6.36-12.993Z" transform="translate(4038.696 -227.243)" fill="#eb6300"/>
  <path id="Tracciato_341" data-name="Tracciato 341" d="M-3932.882,334.285l-6.947,9.227-4.561,3.318-26.954,3.317-3.87-2.35,1.935,3.871,14.375,2.35,9.227,1.727c1.842.044,6.116-1.451,9.019-2.7l4.425-10.643Z" transform="translate(4148.678 -227.308)" fill="#eb6300"/>
  <path id="Tracciato_342" data-name="Tracciato 342" d="M-3955.95,437.271c-.553.208,7.314-13.073,10.989-16.656a170.2,170.2,0,0,1,16.828-14.262l-2.461-4.8-27.506,18.521-2.17,8.875Z" transform="translate(4128.802 -226.469)" fill="#eb6300"/>
  <path id="Tracciato_343" data-name="Tracciato 343" d="M-3900.5,436.7c-3.828-3.7-15.792-16.857-21.564-20.665-2.086-1.377-9.123-4.976-9.123-4.976l2.489-8.087,22.453,19.3,8.267,9.637Z" transform="translate(4069.21 -226.451)" fill="#eb6300"/>
  <path id="Tracciato_344" data-name="Tracciato 344" d="M-3989.351,367.673l4.147,3.732,3.87.829,1.935-5.806-2.764,2.488Z" transform="translate(4209.51 -226.907)" fill="#eb6300"/>
  <path id="Tracciato_345" data-name="Tracciato 345" d="M-3929.657,299.3l-5.6,9.952.753-8.9Z" transform="translate(4104.997 -227.745)" fill="#cb7d35"/>
  <path id="Tracciato_346" data-name="Tracciato 346" d="M-4008.154,370.252l1.383,7.188-4.424,2.488,2.212-3.594Z" transform="translate(4258.999 -226.859)" fill="#eb6300"/>
  <path id="Tracciato_347" data-name="Tracciato 347" d="M-3943.79,382.045l9.952-11.611,15.758-.414s11.2,9.122,10.782,10.367c-3.317-.829-14.1-5.806-14.1-5.806l-9.124,1.244Z" transform="translate(4091.268 -226.862)" fill="#eb6300"/>
  <path id="Tracciato_348" data-name="Tracciato 348" d="M-3926.687,385.034l4.355.208,7.671-3.317-1.037,3.732s-6.013,2.28-7.257,2.28A38.866,38.866,0,0,0-3926.687,385.034Z" transform="translate(4081.326 -226.714)" fill="#eb6300"/>
  <path id="Tracciato_349" data-name="Tracciato 349" d="M-3927.056,383.358l-6.774.622-4.146-2.833.553,3.87s4.978,2.212,6.221,2.212C-3929.544,386.814-3927.056,383.358-3927.056,383.358Z" transform="translate(4105.152 -226.723)" fill="#eb6300"/>
  <path id="Tracciato_350" data-name="Tracciato 350" d="M-3892.341,482.121l-4.976,1.936-2.49-3.248-.551,4.354a5.148,5.148,0,0,0,1.659,3.871C-3897.663,488-3892.341,482.121-3892.341,482.121Z" transform="translate(4032.356 -225.479)" fill="#eb6300"/>
  <path id="Tracciato_351" data-name="Tracciato 351" d="M-3972.254,481.286l-2.792,2.033-5.254-.555,5.254,6.083s3.041.553,4.381-1.479A54.056,54.056,0,0,1-3972.254,481.286Z" transform="translate(4191.61 -225.474)" fill="#eb6300"/>
  <path id="Tracciato_352" data-name="Tracciato 352" d="M-3887.4,475.543l-3.594-.622-4.7-7.465,1.382,8.019a20.427,20.427,0,0,0,.83,5.252C-3892.447,479.69-3887.4,475.543-3887.4,475.543Z" transform="translate(4022.688 -225.646)" fill="#eb6300"/>
  <g id="Raggruppa_192" data-name="Raggruppa 192" transform="translate(196.936 151.589)">
    <path id="Tracciato_353" data-name="Tracciato 353" d="M-3993.723,392.912l6.635,3.006,3.836-.414,4.769-4.355,6.116-11.3a47.173,47.173,0,0,1,11.81,7.172l-3.262,2.266-9.252,8.116,14.191-8.85c1.612,1.611,2.71,3.214,2.8,4.593l-19.178,10.713-3.594,2.21-6.358,5.116-5.391.829-2.9-6.635-2.489-4.355-.83-7.258Z" transform="translate(3996.825 -378.328)" fill="#232d36"/>
    <path id="Tracciato_354" data-name="Tracciato 354" d="M-4002.762,387.041l1.335-.926,9.151-7.768-7.438,9.371-1.371.856C-4001.6,388.061-4002.16,387.548-4002.762,387.041Z" transform="translate(4039.03 -378.347)" fill="#eb6300"/>
    <path id="Tracciato_355" data-name="Tracciato 355" d="M-3984.81,389.2l3.262-2.266c.6.507,1.164,1.02,1.677,1.532l-14.191,8.85Z" transform="translate(4017.816 -378.24)" fill="#3b424c"/>
  </g>
  <path id="Tracciato_356" data-name="Tracciato 356" d="M-3977.334,319.117l-3.593-2.488-.829,1.382-1.314-3.9,3.663,1.14Z" transform="translate(4201.085 -227.56)" fill="#eb6300"/>
  <path id="Tracciato_357" data-name="Tracciato 357" d="M-3915.791,390.84l-10.92,3.455,6.912.969Z" transform="translate(4082.481 -226.602)" fill="#eb6300"/>
  <path id="Tracciato_358" data-name="Tracciato 358" d="M-3927.988,394.25l-7.3-3.068,1.771,4.243Z" transform="translate(4103.361 -226.598)" fill="#eb6300"/>
  <path id="Tracciato_359" data-name="Tracciato 359" d="M-3955.4,460.769l9.4,10.643,5.979,4.467-10.056-1.081-18.66-28.82Z" transform="translate(4149.26 -225.914)" fill="#eb6300"/>
  <path id="Tracciato_360" data-name="Tracciato 360" d="M-3899.854,462.77c-4.769,7.257-8.916,10.368-8.916,10.368h-5.391l6.083,6.911,3.663-7.118S-3901.513,466.71-3899.854,462.77Z" transform="translate(4053.839 -225.705)" fill="#eb6300"/>
  <path id="Tracciato_361" data-name="Tracciato 361" d="M-3958.514,401.7s21.037-1.089,26.851-1.348c11.334-.5,32.552,1.037,32.552,1.037a24.1,24.1,0,0,1,1.037,4.147c-16.519,6.054-29.443,28.338-29.443,28.338l-3.317-1.107s-8.682-8.873-16.146-16.062c-9.184-8.848-12.882-8.473-12.882-8.473Z" transform="translate(4098.329 -226.485)" fill="#232d36"/>
  <path id="Tracciato_362" data-name="Tracciato 362" d="M-3883.454,507.209c-1.036,15.965-3.781,44.089-4.736,47.526-.518,1.866-2.763,5.448-4.354,7.465a82.143,82.143,0,0,1-6.322,5.761l-3.042,3.361,25.572.093s.415-4.389.415-6.358c-.1-2.7-.658-5.346.379-10.115a37.008,37.008,0,0,1,5.39-12.648c1.579-3.837,8.917-15.757,8.917-15.757s1.577-7.492,2.7-13.219C-3865.175,511.106-3878.479,509.145-3883.454,507.209Z" transform="translate(4000.117 -225.15)" fill="#232d36"/>
  <path id="Tracciato_363" data-name="Tracciato 363" d="M-3982.073,555.82c-2.073-3.317-3.524-10.3-3.524-10.3-4.253-26.889-6.455-37.183-8.724-42.162-3.455,1.934-21.687,12.307-21.687,12.307s1.1,3.448,2.625,7.61c9.4,14.374,16.9,26.843,17.731,31.818,1.208,4.251,2.278,5.773,1.208,9.78a10.518,10.518,0,0,0,.45,7.119h23.325c1.109-.325,0-1.866-1.451-4.146A60.076,60.076,0,0,1-3982.073,555.82Z" transform="translate(4227.32 -225.198)" fill="#232d36"/>
  <path id="Tracciato_364" data-name="Tracciato 364" d="M-3956.783,397.294l-3.318,1.935-2.245.612-.52-3.376,4.147,1.106Z" transform="translate(4160.079 -226.532)" fill="#3b424c"/>
  <path id="Tracciato_365" data-name="Tracciato 365" d="M-4000.273,338.442l6.912,6.635.829,12.993-3.317-10.367Z" transform="translate(4233.702 -227.256)" fill="#eb6300"/>
  <path id="Tracciato_366" data-name="Tracciato 366" d="M-3879.06,558.926l1.383,7.465-4.907-.69s-.188-.272,1.658-2.488A10.832,10.832,0,0,0-3879.06,558.926Z" transform="translate(3999.695 -224.504)" fill="#3b424c"/>
  <path id="Tracciato_367" data-name="Tracciato 367" d="M-3913.6,433.727s-8.293,16.794-12.026,22.185c2.489-6.428,9.538-25.088,9.538-25.088Z" transform="translate(4079.198 -226.103)" fill="#eb6300"/>
  <path id="Tracciato_368" data-name="Tracciato 368" d="M-3830.849,304.815c23.811-.119,56.7.019,56.7.019,4.179,0,7.346-1.991,7.346-4.447h-68.765S-3834.727,304.834-3830.849,304.815Z" transform="translate(3841.217 -227.731)" fill="#babcbd" fill-rule="evenodd"/>
  <g id="Raggruppa_193" data-name="Raggruppa 193" transform="translate(15.927 6.905)">
    <path id="Tracciato_369" data-name="Tracciato 369" d="M-3787,297.5a2.911,2.911,0,0,0,1.64-1.429,2.411,2.411,0,0,0,.188-1q0-11.457,0-22.915c-.308-.191-.621-.378-.925-.576q-9.51-6.213-19.012-12.437a.83.83,0,0,0-1.077.014c-2.446,1.625-4.915,3.216-7.371,4.825q-3.836,2.515-7.662,5.045,0,12.9,0,25.792a2.677,2.677,0,0,0,.834,2.006c.3.3.712.383,1,.673h7.306c.012-.242.035-.484.035-.726,0-5.8.008-11.6-.011-17.407,0-.515.148-.633.644-.63q5.752.03,11.5,0c.551,0,.706.131.7.695-.021,5.782-.013,11.564-.011,17.346,0,.241.028.483.044.724Z" transform="translate(3829.132 -235.154)" fill="#e9f2f3"/>
    <path id="Tracciato_370" data-name="Tracciato 370" d="M-3794.483,297.256c-.015-.241-.043-.483-.043-.724,0-5.782-.01-11.564.011-17.346,0-.564-.153-.7-.7-.695q-5.752.036-11.5,0c-.5,0-.645.114-.644.63.02,5.8.013,11.6.011,17.407,0,.242-.023.484-.035.726Z" transform="translate(3824.436 -234.91)" fill="#f9930f"/>
    <path id="Tracciato_371" data-name="Tracciato 371" d="M-3780.594,297.376c-.286-.291-.7-.377-1-.673a2.678,2.678,0,0,1-.834-2.006q.012-12.9,0-25.792c-1.7.993-3.259,2.208-4.989,3.157,0,7.356.015,14.711-.015,22.066a3.017,3.017,0,0,0,1.96,3.248Z" transform="translate(3790.334 -235.029)" fill="#d7e9ef"/>
    <path id="Tracciato_372" data-name="Tracciato 372" d="M-3821.3,272.252c1.729-.949,3.288-2.164,4.989-3.157q3.832-2.524,7.662-5.045c2.456-1.61,4.925-3.2,7.371-4.825a.83.83,0,0,1,1.077-.014q9.5,6.234,19.013,12.437c.3.2.616.385.925.576a2.313,2.313,0,0,0,2.945-1.71,1.946,1.946,0,0,0-.43-1.925,3.8,3.8,0,0,0-.792-.661q-10.28-6.842-20.552-13.7a2.674,2.674,0,0,0-3.269-.006q-10.293,6.878-20.6,13.736a2.205,2.205,0,0,0-1.221,2.32,2.4,2.4,0,0,0,1.8,2.012A2.668,2.668,0,0,0-3821.3,272.252Z" transform="translate(3824.224 -235.22)" fill="#e46097"/>
    <path id="Tracciato_373" data-name="Tracciato 373" d="M-3801.507,235.447a14.862,14.862,0,0,0-10.03,4.328.962.962,0,0,0-.164,1.444c.4.426.925.4,1.441-.091a13.144,13.144,0,0,1,9.2-3.814,13.132,13.132,0,0,1,9.387,3.658c.074.069.145.142.221.209a.918.918,0,0,0,1.354.071.925.925,0,0,0-.058-1.4,14.768,14.768,0,0,0-3.453-2.567A15.839,15.839,0,0,0-3801.507,235.447Z" transform="translate(3824.379 -235.447)" fill="#ffd400"/>
    <path id="Tracciato_374" data-name="Tracciato 374" d="M-3808.368,244.253a.889.889,0,0,0,.52.915.937.937,0,0,0,1.109-.237,7.963,7.963,0,0,1,3.776-2.11,8.2,8.2,0,0,1,7.819,2.072.976.976,0,0,0,1.209.246.889.889,0,0,0,.44-1.039,1.13,1.13,0,0,0-.4-.594,10.239,10.239,0,0,0-14.052,0C-3808.185,243.739-3808.4,243.978-3808.368,244.253Z" transform="translate(3824.42 -235.381)" fill="#ffd400"/>
    <path id="Tracciato_375" data-name="Tracciato 375" d="M-3801.146,245.664a5.056,5.056,0,0,0-3.366,1.351c-.545.479-.62,1.048-.22,1.479s.891.392,1.445-.075a3.417,3.417,0,0,1,4.642,0c.552.467,1.057.493,1.445.075s.323-.99-.225-1.475A5.3,5.3,0,0,0-3801.146,245.664Z" transform="translate(3824.466 -235.319)" fill="#ffd400"/>
  </g>
  <g id="Raggruppa_194" data-name="Raggruppa 194" transform="translate(15.927 6.905)">
    <path id="Tracciato_376" data-name="Tracciato 376" d="M-3787,297.5a2.911,2.911,0,0,0,1.64-1.429,2.411,2.411,0,0,0,.188-1q0-11.457,0-22.915c-.308-.191-.621-.378-.925-.576q-9.51-6.213-19.012-12.437a.83.83,0,0,0-1.077.014c-2.446,1.625-4.915,3.216-7.371,4.825q-3.836,2.515-7.662,5.045,0,12.9,0,25.792a2.677,2.677,0,0,0,.834,2.006c.3.3.712.383,1,.673h7.306c.012-.242.035-.484.035-.726,0-5.8.008-11.6-.011-17.407,0-.515.148-.633.644-.63q5.752.03,11.5,0c.551,0,.706.131.7.695-.021,5.782-.013,11.564-.011,17.346,0,.241.028.483.044.724Z" transform="translate(3829.132 -235.154)" fill="#e7e9e5"/>
    <path id="Tracciato_377" data-name="Tracciato 377" d="M-3794.483,297.256c-.015-.241-.043-.483-.043-.724,0-5.782-.01-11.564.011-17.346,0-.564-.153-.7-.7-.695q-5.752.036-11.5,0c-.5,0-.645.114-.644.63.02,5.8.013,11.6.011,17.407,0,.242-.023.484-.035.726Z" transform="translate(3824.436 -234.91)" fill="#f9930f"/>
    <path id="Tracciato_378" data-name="Tracciato 378" d="M-3780.594,297.376c-.286-.291-.7-.377-1-.673a2.678,2.678,0,0,1-.834-2.006q.012-12.9,0-25.792c-1.7.993-3.259,2.208-4.989,3.157,0,7.356.015,14.711-.015,22.066a3.017,3.017,0,0,0,1.96,3.248Z" transform="translate(3790.334 -235.029)" fill="#d1d2d2"/>
    <path id="Tracciato_379" data-name="Tracciato 379" d="M-3821.3,272.252c1.729-.949,3.288-2.164,4.989-3.157q3.832-2.524,7.662-5.045c2.456-1.61,4.925-3.2,7.371-4.825a.83.83,0,0,1,1.077-.014q9.5,6.234,19.013,12.437c.3.2.616.385.925.576a2.313,2.313,0,0,0,2.945-1.71,1.946,1.946,0,0,0-.43-1.925,3.8,3.8,0,0,0-.792-.661q-10.28-6.842-20.552-13.7a2.674,2.674,0,0,0-3.269-.006q-10.293,6.878-20.6,13.736a2.205,2.205,0,0,0-1.221,2.32,2.4,2.4,0,0,0,1.8,2.012A2.668,2.668,0,0,0-3821.3,272.252Z" transform="translate(3824.224 -235.22)" fill="#e1383f"/>
    <path id="Tracciato_380" data-name="Tracciato 380" d="M-3801.507,235.447a14.862,14.862,0,0,0-10.03,4.328.962.962,0,0,0-.164,1.444c.4.426.925.4,1.441-.091a13.144,13.144,0,0,1,9.2-3.814,13.132,13.132,0,0,1,9.387,3.658c.074.069.145.142.221.209a.918.918,0,0,0,1.354.071.925.925,0,0,0-.058-1.4,14.768,14.768,0,0,0-3.453-2.567A15.839,15.839,0,0,0-3801.507,235.447Z" transform="translate(3824.379 -235.447)" fill="#ffd400"/>
    <path id="Tracciato_381" data-name="Tracciato 381" d="M-3808.368,244.253a.889.889,0,0,0,.52.915.937.937,0,0,0,1.109-.237,7.963,7.963,0,0,1,3.776-2.11,8.2,8.2,0,0,1,7.819,2.072.976.976,0,0,0,1.209.246.889.889,0,0,0,.44-1.039,1.13,1.13,0,0,0-.4-.594,10.239,10.239,0,0,0-14.052,0C-3808.185,243.739-3808.4,243.978-3808.368,244.253Z" transform="translate(3824.42 -235.381)" fill="#ffd400"/>
    <path id="Tracciato_382" data-name="Tracciato 382" d="M-3801.146,245.664a5.056,5.056,0,0,0-3.366,1.351c-.545.479-.62,1.048-.22,1.479s.891.392,1.445-.075a3.417,3.417,0,0,1,4.642,0c.552.467,1.057.493,1.445.075s.323-.99-.225-1.475A5.3,5.3,0,0,0-3801.146,245.664Z" transform="translate(3824.466 -235.319)" fill="#ffd400"/>
  </g>
  <rect id="Rettangolo_98" data-name="Rettangolo 98" width="80.057" height="4.413" rx="2.18" transform="translate(0 69.134)" fill="#d1d2d2"/>
</svg>
