<?xml version="1.0" encoding="UTF-8" standalone="no"?><!DOCTYPE svg PUBLIC "-//W3C//DTD SVG 1.1//EN" "http://www.w3.org/Graphics/SVG/1.1/DTD/svg11.dtd"><svg width="100%" height="100%" viewBox="0 0 316 383" version="1.1" xmlns="http://www.w3.org/2000/svg" xmlns:xlink="http://www.w3.org/1999/xlink" xml:space="preserve" xmlns:serif="http://www.serif.com/" style="fill-rule:evenodd;clip-rule:evenodd;stroke-linejoin:round;stroke-miterlimit:2;"><rect id="Tavola-da-disegno1" serif:id="Tavola da disegno1" x="0" y="0" width="315.875" height="382.346" style="fill:none;"/><g id="Raggruppa_255"><path id="Tracciato_6951" d="M301.852,297.734c-11.532,14.85 -40.122,23.232 -66.612,21.624c58.492,-13.86 90.423,-42.555 68.526,-107.236c9.2,14.395 22.6,54.046 -1.914,85.61l0,0.002Z" style="fill:#d0d3d6;fill-opacity:0.32;fill-rule:nonzero;"/><path id="Tracciato_6989" d="M220.613,290.454c-13.394,0.461 -32.843,-7.324 -47.422,-20.579c39.367,19.44 75.4,21.569 89.453,-25.145c-6.8,38.242 -29.138,45.278 -42.031,45.724Z" style="fill:#d0d3d6;fill-opacity:0.32;fill-rule:nonzero;"/><g id="Raggruppa_243"><path id="Tracciato_6944" d="M191.07,87.964c12.647,20.38 39.182,63.9 55.886,79.424c15.051,13.983 33.607,26.683 38.78,29.654c-1.191,12.07 -2.143,23.073 -6.028,27.3c-10.9,-3.133 -45.98,-7.78 -48.465,8.077c-0.594,3.789 0.674,8.75 4.578,15.182c-4.847,6.291 -16.538,14.724 -33.611,16.114c-5.375,-0.645 -12.566,-3.216 -19.371,-7.193c-12.242,-7.157 -35.026,-17 -41.684,-21.615c-6.311,-29.26 4.59,-64.542 -1.721,-93.8c-5.738,-21.804 -15.671,-46.402 -21.411,-68.203c25.518,-7.659 57.9,-1.459 73.047,15.06Z" style="fill:#d1d2d2;fill-rule:nonzero;"/><path id="Tracciato_6945" d="M236.058,248.126c-16.197,-32.841 -32.325,-77.556 -46.585,-111.768c5.167,34.35 16.14,91.077 16.355,126.936c10.905,-1.546 21.656,-6.054 30.23,-15.168Z" style="fill:#babcbd;fill-rule:nonzero;"/><path id="Tracciato_6946" d="M232.078,239.786c-9.84,-21.274 -21.094,-50 -31.024,-75.335c-5.819,-14.854 -11.315,-28.877 -16.099,-40.354c-0.366,-4.362 -0.188,-8.753 0.53,-13.07c0.814,-4.94 2.2,-8.7 3.9,-10.58c0.686,-0.872 1.72,-1.402 2.829,-1.45c1.461,0.139 2.811,0.843 3.761,1.961c5.457,11.146 12.817,23.36 22.5,37.341c8.522,12.3 17.615,24.245 26.408,35.792c7.23,9.494 14.058,18.46 19.993,26.878c6.666,9.455 11.233,16.841 14.374,23.246c-7.822,-1.967 -15.853,-2.98 -23.918,-3.018c-6.54,0 -11.883,0.791 -15.882,2.352c-4.82,1.882 -7.583,4.865 -8.21,8.868c-0.302,2.487 -0.015,5.01 0.839,7.366l-0.001,0.003Z" style="fill:#d1d2d2;fill-rule:nonzero;"/><path id="Tracciato_6947" d="M191.066,87.956c12.643,20.382 39.182,63.91 55.886,79.431c15.051,13.985 33.607,26.685 38.78,29.656c4.469,17.476 1.034,35.355 -4.971,38.8c-36.07,-46.757 -62.934,-86.738 -91.352,-149.247c0.564,0.452 1.116,0.906 1.657,1.36Z" style="fill:#e7e9e5;fill-rule:nonzero;"/></g><path id="Tracciato_6948" d="M160.948,75.511l-5.964,134.3l15.059,1.4l0.871,-2.5l2.64,-22.592l-1.426,-17.267l9.563,-9.766l12.366,-23.757l5.116,-16.909l0.924,-22.9l-15.713,-14.759l-23.436,-5.25Z" style="fill:#eb6300;fill-rule:nonzero;"/><path id="Tracciato_6952" d="M108.045,181.737c-7.117,0.216 -56.75,8.143 -63.488,11.38c-3.043,3.019 -7.576,7.779 -4.569,12.736c8.536,7.151 27.207,14.389 37.121,18.4c10.959,4.433 37.279,0.172 41.8,-1.356c8.507,-2.875 22.407,-15.894 22.943,-20.327c-15.47,-1.442 -17.796,-20.395 -32.42,-24.217l-1.387,3.384Z" style="fill:#f58600;fill-rule:nonzero;"/><path id="Tracciato_6953" d="M47.419,208.981c8.956,5.777 22.682,12.247 30.911,15.578c5.061,2.048 13.734,0.774 18.384,0.813c4.4,0.037 14.144,-2.146 18.424,-2.456c-11.867,-3.327 -25.591,-3.9 -36.67,-10.044c-10.24,-5.676 -20.325,-10.776 -24.84,-11.976c-2.591,1.325 -7.643,3.416 -6.705,7.189l0.496,0.896Z" style="fill:#eb6300;fill-rule:nonzero;"/><path id="Tracciato_6954" d="M41.954,197.155c-2.144,1.964 -3.245,7.887 -1.339,11.274c6.333,6.465 13.768,14.578 19.959,21.566c11.114,12.545 29.414,30.487 38.147,42.56l4.865,-5.847c-7.506,-14.453 -4.28,-24.38 -16.532,-45.536c-2.817,-2.809 -9.751,-7.783 -13.177,-10.687c-9.124,-7.73 -20.957,-11.977 -31.923,-13.33Z" style="fill:#f58600;fill-rule:nonzero;"/><path id="Tracciato_6955" d="M61.033,230.415c13.989,15.8 27.849,30.776 37.5,43.809l6.916,-6.662c-10.852,-20.611 -5.716,-29.696 -17.955,-45.621c-5.946,4.518 -18.361,7.107 -26.461,8.474Z" style="fill:#232d36;fill-rule:nonzero;"/><path id="Tracciato_6956" d="M99.966,259.029c4.718,-0.272 7.027,-0.256 9.246,2.444c3.416,4.159 1.59,2.534 2.484,7.654c0.352,1.684 1.118,3.254 2.229,4.568c3.449,4.5 3.883,11.479 2,17.588c-0.661,2.142 -2.252,4.223 -4.179,4.231c-1.128,-0.558 -1.858,-2.225 -3.623,-4.809c-1.836,-2.687 -4.211,-8.625 -6.036,-11.495c-1.406,-2.212 -2.917,-3.715 -3.548,-4.985c0.067,-4.445 -0.138,-9.971 1.427,-15.196Z" style="fill:#232d36;fill-rule:nonzero;"/><path id="Tracciato_6957" d="M189.565,89.154c-4.968,-5.289 -17.544,-9.876 -17.544,-9.876l-19.27,-6.838l-12.222,-2.28c0,0 -10.639,1.382 -15.474,1.934c-7.095,3.671 -10.109,2.445 -26.684,10.734l-8.942,6.098c-7.4,12.489 11.73,50.855 11.73,50.855l12.018,22.378c0,0 -5.309,22.32 -8.591,37.809c6.63,3.315 61.942,4.2 61.942,4.2l4.766,0.585l0.815,-15.016l-7.548,-33.655l13.052,-28.526l2.693,-4.973c1.273,-14.723 11.054,-18.546 9.259,-33.429Z" style="fill:#f58600;fill-rule:nonzero;"/><path id="Tracciato_6958" d="M193.088,285.448c-1.807,-5.469 -12.938,-25.935 -12.938,-25.935l-6.04,-41.583l-8.579,-40.151l-27.722,6.955l-8.311,17.007c2.923,14.189 8.139,27.808 15.441,40.32c5.087,8.7 7.219,12.311 12.963,21.748c2.832,4.654 6.681,11.522 7.3,19.442c-0.258,9.6 4.219,19.633 4.219,19.633c7.642,0.84 17.719,0 27.16,-0.824c-0.612,-5.639 -1.781,-11.204 -3.488,-16.612l-0.005,0Z" style="fill:#f58600;fill-rule:nonzero;"/><path id="Tracciato_6959" d="M94.649,103.589l0.38,7.023l4.512,11.169l29.1,5.015l-16.456,1.928l-12.782,0.165c-1.818,-0.472 -3.212,-1.948 -3.58,-3.789l-2.874,-14.174l1.7,-7.337Z" style="fill:#eb6300;fill-rule:nonzero;"/><path id="Tracciato_6960" d="M177.69,110.516l-7.542,10.014l-12.664,-5.187l-21.55,12.391l-4.506,-1.086l3.866,3.445l-0.81,5.093l24.973,-1.37c2,0.047 6.64,-1.575 9.791,-2.926l4.8,-11.556l3.642,-8.818Z" style="fill:#eb6300;fill-rule:nonzero;"/><path id="Tracciato_6961" d="M133.504,216.69c0.943,-8.9 12,-19.07 16.16,-22.649c9.387,-8.079 21.63,-7.935 21.63,-7.935l-1.236,-6.323l-33.507,15.8l-4.124,17.74l1.077,3.367Z" style="fill:#eb6300;fill-rule:nonzero;"/><path id="Tracciato_6962" d="M112.667,106.078l12.222,-3.1l3.937,1.449l-16.159,1.651Z" style="fill:#eb6300;fill-rule:nonzero;"/><path id="Tracciato_6963" d="M145.171,71.598l-5.6,9.949l0.753,-8.9l4.847,-1.049Z" style="fill:#cb7d35;fill-rule:nonzero;"/><path id="Tracciato_6964" d="M113.189,157.184l9.944,-11.6l15.745,-0.414c0,0 11.188,9.114 10.773,10.356c-3.315,-0.829 -14.088,-5.8 -14.088,-5.8l-9.115,1.244l-13.259,6.214Z" style="fill:#eb6300;fill-rule:nonzero;"/><path id="Tracciato_6965" d="M116.811,157.497l4.35,0.207l7.665,-3.319l-1.036,3.734c0,0 -6.006,2.279 -7.25,2.279c-1.183,-1.042 -2.428,-2.011 -3.729,-2.901Z" style="fill:#eb6300;fill-rule:nonzero;"/><path id="Tracciato_6966" d="M142.556,157.805l-6.766,0.621l-4.146,-2.828l0.556,3.864c0,0 4.971,2.21 6.214,2.21c1.656,-0.415 4.142,-3.867 4.142,-3.867Z" style="fill:#eb6300;fill-rule:nonzero;"/><path id="Tracciato_6967" d="M171.1,267.124l-3.149,1.862l-5.686,-0.87l5.38,6.38c0,0 3.275,0.734 4.845,-1.21c-0.592,-2.023 -1.056,-4.081 -1.39,-6.162Z" style="fill:#eb6300;fill-rule:nonzero;"/><path id="Tracciato_6968" d="M193.545,93.599l-3.591,-2.482l-0.83,1.382l-1.313,-3.9l3.661,1.137l2.073,3.863Z" style="fill:#eb6300;fill-rule:nonzero;"/><path id="Tracciato_6969" d="M126.719,165.77l-10.917,3.454l6.908,0.968l4.009,-4.422Z" style="fill:#eb6300;fill-rule:nonzero;"/><path id="Tracciato_6970" d="M161.941,167.98l-42.809,-9.531l14.377,10.318l19.966,3.523l8.466,-4.31Z" style="fill:#eb6300;fill-rule:nonzero;"/><path id="Tracciato_6971" d="M151.05,240.011l9.627,11.187l6.252,4.819l-10.872,-1.684l-13.035,-32.1l8.028,17.778Z" style="fill:#eb6300;fill-rule:nonzero;"/><path id="Tracciato_6972" d="M109.665,177.208c0,0 21.023,-1.088 26.833,-1.348c11.328,-0.5 32.894,1.036 32.894,1.036c0.467,1.348 0.814,2.734 1.036,4.144c-31.005,8.631 -37.727,33.1 -37.727,33.1l-2.634,-0.508l-12.158,-18.013l-9.868,-13.885l1.624,-4.526Z" style="fill:#232d36;fill-rule:nonzero;"/><path id="Tracciato_6973" d="M50.691,205.857l-1.278,5.181l-4.089,0.167l3.245,2.952c1.185,0.862 2.684,1.179 4.116,0.869c-0.251,-1.441 -1.994,-9.169 -1.994,-9.169Z" style="fill:#eb6300;fill-rule:nonzero;"/><path id="Tracciato_6974" d="M101.781,259.615c1.452,-0.194 2.928,-0.12 4.353,0.22c1.095,0.364 3.366,3.159 3.366,3.159c0,0 -1.413,1.571 -3.146,-0.738c-1.496,-1.992 -4.573,-2.641 -4.573,-2.641Z" style="fill:#3b424c;fill-rule:nonzero;"/><path id="Tracciato_6975" d="M168.978,302.017c9.5,18.847 19.076,36.871 25.082,51.939l8.39,-4.676c-5.235,-22.7 2.054,-30.176 -5.718,-48.7c-6.906,2.85 -19.58,2.182 -27.754,1.437Z" style="fill:#232d36;fill-rule:nonzero;"/><path id="Tracciato_6976" d="M199.668,342.899c4.631,0.942 6.858,1.547 8.314,4.723c2.241,4.893 0.891,2.856 0.447,8.034c-0.09,1.718 0.25,3.432 0.988,4.986c2.185,5.23 0.823,12.089 -2.56,17.516c-1.185,1.9 -3.254,3.509 -5.119,3.024c-0.948,-0.827 -1.228,-2.625 -2.275,-5.574c-1.086,-3.062 -1.864,-9.413 -2.9,-12.654c-0.791,-2.499 -2.732,-8.874 -3.016,-10.263c1.2,-4.282 3.274,-5.141 6.121,-9.792Z" style="fill:#232d36;fill-rule:nonzero;"/><path id="Tracciato_6977" d="M202.012,344.649c1.453,0.183 2.859,0.632 4.15,1.324c0.967,0.629 2.45,3.908 2.45,3.908c0,0 -1.766,1.157 -2.852,-1.516c-0.938,-2.307 -3.748,-3.716 -3.748,-3.716Z" style="fill:#3b424c;fill-rule:nonzero;"/><g id="Raggruppa_247"><path id="Tracciato_6978" d="M105.977,80.029c-16.466,0.531 -21.008,11.931 -22.713,21.054c-9.559,7.278 -11.436,19.846 -9.947,30.857c-3.034,8.789 -0.689,19.759 0.239,23.181c19.808,8.385 19.929,9.595 43.25,2.656c-9.275,-9.3 -14.32,-17.32 -25.1,-25.82c0.862,-1.369 4.45,-2.485 5.311,-3.855c0.571,-23.045 2.229,-28.686 8.96,-48.073Z" style="fill:#f58600;fill-rule:nonzero;"/><path id="Tracciato_6979" d="M90.179,131.856c6.57,3.777 12.24,11.713 17.9,17.707c7.789,8.243 12.041,10.8 17.415,13.819c8.912,5.012 18.669,5.465 35.966,6.437c3.966,-2.928 7.672,-5.572 11.635,-8.498c6.885,-4.586 9.956,-7.975 12.652,-12.193c2.679,-4.187 7.121,-13.865 9.044,-25.627c9.741,-16.694 1.35,-36.98 -14.459,-37.08c-15.7,-0.094 -20.3,21.918 -22.807,34.306c-1.307,6.461 -1.157,13.407 -2.651,19.485c-5.969,-3.738 -19.126,-5.728 -32.916,-6.618c-7.889,-0.509 -15.884,-5.383 -21.242,-6.892c-6.93,0.23 -11.065,2.419 -10.537,5.154Z" style="fill:#f58600;fill-rule:nonzero;"/><path id="Tracciato_6980" d="M190.337,139.716c2.044,-5.237 3.536,-10.672 4.453,-16.218c4.337,-7.175 5.32,-15.901 2.688,-23.861c0.29,9.862 -1.646,19.158 -7.91,23.374c1.136,5.313 1.069,11.632 0.771,16.7l-0.002,0.005Z" style="fill:#eb6300;fill-rule:nonzero;"/><path id="Tracciato_6981" d="M99.139,162.02c6.141,-0.783 9.725,-1.878 17.667,-4.242c-3.2,-3.209 -6.137,-6.434 -9.05,-9.582c-3.597,-3.886 -7.204,-7.552 -10.82,-10.997c-3.427,4.941 -4.766,7.323 -4.118,14.421c0.357,3.9 2.6,7.419 6.321,10.4Z" style="fill:#232d36;fill-rule:nonzero;"/><path id="Tracciato_6982" d="M94.15,141.659c0.792,-1.568 1.725,-3.061 2.786,-4.46c3.606,3.454 7.213,7.121 10.82,11c2.913,3.148 5.851,6.372 9.05,9.58c-1.508,0.449 -1.018,0.311 -2.259,0.675c-5.053,-2.464 -17.956,-13.994 -20.397,-16.795Z" style="fill:#3b424c;fill-rule:nonzero;"/><path id="Tracciato_6983" d="M95.653,138.998c-2.732,-1.738 -7.919,-5.203 -14.683,-4.686c1.746,-1.64 5.377,-2.724 8.617,-2.652c3.902,0.1 7.573,1.56 11.123,1.657c-1.884,1.707 -3.58,3.611 -5.057,5.681Z" style="fill:#eb6300;fill-rule:nonzero;"/><path id="Tracciato_6984" d="M97.157,127.004c-0.08,0.113 -0.258,0.095 -0.336,0.209c-2.562,0.846 -4.827,2.411 -6.526,4.507c-0.406,-0.039 -0.814,-0.06 -1.223,-0.06c-0.727,-0.001 -1.453,0.054 -2.172,0.164c4.829,-5.9 6.314,-13.634 5.554,-21.244c2.828,-3.16 4.031,-3.697 6.061,-10.736c1.919,4.02 -2.047,17.49 -1.358,27.156l0,0.004Z" style="fill:#eb6300;fill-rule:nonzero;"/><path id="Tracciato_6985" d="M97.466,127.564c13.085,4.643 17.515,5.763 29.283,13.161c12.637,-3.645 19.188,-4.449 32.393,4.141c1.324,-11.665 1.28,-16.948 10.406,-28.57c-2.815,-4.884 -4.688,-10.252 -5.523,-15.826c-2.415,8.882 -4.539,16.749 -7.219,24.833c-0.612,5.074 -0.79,10.248 -1.935,14.91c-5.971,-3.743 -19.13,-5.729 -32.92,-6.619c-7.891,-0.509 -16.653,-4.973 -22.01,-6.482c-0.836,0.084 -1.663,0.235 -2.475,0.452Z" style="fill:#eb6300;fill-rule:nonzero;"/><path id="Tracciato_6986" d="M90.178,131.855c6.569,3.778 12.239,11.711 17.9,17.703c7.79,8.242 12.044,10.793 17.418,13.816l0.29,0.16c-1.8,-3.837 -2.697,-8.036 -2.622,-12.273c0.294,-9.3 5.954,-14.172 12.131,-16.408c-4.215,-0.565 -8.984,-0.857 -13.447,-2c-7.36,-1.889 -14.746,-4.692 -20.1,-6.2c-7.287,-0.237 -9.233,2.58 -11.57,5.202Z" style="fill:#232d36;fill-rule:nonzero;"/><path id="Tracciato_6987" d="M126.776,140.728c2.257,-2.715 5.22,-4.753 8.562,-5.89c-4.214,-0.566 -9.026,-0.843 -13.487,-1.991c-7.36,-1.888 -14.745,-4.693 -20.1,-6.2c-1.584,0.029 -3.161,0.234 -4.7,0.612c12.435,4.41 18.489,6.455 29.725,13.469Z" style="fill:#3b424c;fill-rule:nonzero;"/><path id="Tracciato_6988" d="M146.015,126.022c-1.532,1.49 -8.607,7.385 -10.121,8.929c4.001,0.485 7.958,1.282 11.834,2.386c1.195,0.072 3.38,1.426 5.257,2.457c0.821,0.4 1.549,0.741 2.663,1.238c1.071,0.476 1.625,-0.791 2.493,-0.775c0.881,-0.264 2.484,1.429 3.092,1.177c1.284,-0.542 2.4,-1.419 3.229,-2.539c-0.139,-1.153 -0.342,-3.1 -0.641,-4.674c-1.087,-1.29 -4.169,-4.654 -4.983,-5.5c0.512,-0.091 1.03,-0.137 1.55,-0.139c1.744,1.635 4.355,5.045 4.416,5c0.412,-0.283 0.412,-0.314 0.924,-0.688c-0.065,-1.1 -1.017,-2.967 -1.1,-4.149c-1.435,-1.835 -3.016,-3.55 -4.728,-5.128c-4.674,-0.33 -9.361,-0.171 -13.885,2.405Z" style="fill:#232d36;fill-rule:nonzero;"/></g><g id="Raggruppa_249"><path id="Tracciato_6990" d="M131.866,90.496c-8.051,2.386 -10.7,3.432 -11.834,6.882c-0.841,2.572 -1.892,6.529 1.936,13.118l9.898,-20Z" style="fill:#232d36;fill-rule:nonzero;"/><path id="Tracciato_6991" d="M131.114,90.32c11.694,11.538 9.166,16.368 0,25.722c-0.374,-4.243 -0.832,-8.131 -1.015,-11.991c-0.285,-4.602 0.056,-9.221 1.015,-13.731Z" style="fill:#232d36;fill-rule:nonzero;"/></g><g id="Raggruppa_253"><g id="Raggruppa_250"><path id="Tracciato_6992" d="M122.948,63.314l24.962,-12.948l-9.407,5.108l-15.555,7.84Z" style="fill:#e79b54;fill-rule:nonzero;"/><path id="Tracciato_6993" d="M122.015,71.239l0,-7.456l0.93,-0.471l-0.83,7.984l-0.1,-0.057Z" style="fill:#cb7d35;fill-opacity:0.85;fill-rule:nonzero;"/><path id="Tracciato_6994" d="M122.115,71.296l0.829,-7.986l15.552,-7.838l9.405,-5.11l5.728,-2.966l0.051,16.562l0.024,8.076c-0.007,1.763 -0.391,3.504 -1.126,5.107c-6.448,2.7 -16.147,9.4 -22.639,12.275c-1.963,-3.474 -5.578,-7.389 -8.443,-12.12l0.619,-6Z" style="fill:#e79b54;fill-rule:nonzero;"/><path id="Tracciato_6995" d="M124.501,72.618l-2.382,-1.322l0.829,-7.986l15.553,-7.838l9.406,-5.11l5.728,-2.966l0.051,16.563l-9.81,10.418l-19.375,-1.759Z" style="fill:#cb7d35;fill-opacity:0.85;fill-rule:nonzero;"/></g><path id="Tracciato_6996" d="M156.468,35.023c-0.026,0.556 -0.168,1.851 0.824,2.165c-0.37,1.79 -0.862,3.553 -1.473,5.277c-2.64,7.458 -2.936,8.842 -4.581,13.753c-2.753,4.517 -2.368,8.434 -3.681,10.858c-0.982,0.17 -6.835,2.661 -9.462,2.964c-5.96,-0.1 -14.3,-0.991 -17.073,-1.717c-0.36,-0.176 -2.038,-1.37 -5.147,-3.235c-0.728,-2.4 -0.622,-6.01 -1.239,-9.948c1.615,-2.222 2.693,-3.73 4.369,-5.911c0.949,-1.612 1.529,-3.311 2.191,-4.588c-0.053,-1.346 -0.2,-2.674 -0.137,-4.7c0.8,-1.89 2.806,-5.847 3.806,-8.158l2.083,-9.158c0.191,-1.056 0.261,-2.129 0.207,-3.2c11.623,-2.3 26.917,0.706 29.312,15.6l0.001,-0.002Z" style="fill:#eab070;fill-rule:nonzero;"/><path id="Tracciato_6997" d="M125.553,34.478l-0.9,1.858l0.524,1.79l2.245,1.33l2.081,0.655l1.291,-2.717l0.089,-3.474l-5.33,0.558Z" style="fill:#d38e4f;fill-rule:nonzero;"/><path id="Tracciato_6998" d="M134.314,1.18c0.073,2.02 -0.053,5.8 4.875,7.352c7.984,2.512 12.271,5.52 16.378,7.563c2.419,1.818 4.693,3.822 6.8,5.994c0.412,5.24 -2.155,7.742 -2.155,7.742c-0.191,2.551 -2.218,5.849 -3.47,9.942c-0.993,-0.314 -3.095,-0.332 -3.068,-0.888c-0.169,-4.24 0.518,-7.338 -1.22,-10.712c-2.472,-0.956 -5.082,-1.51 -7.729,-1.641c-5.043,0.694 -11.1,3.067 -18.534,-2.655c-4.971,-6.107 -8.316,-19.21 8.123,-22.697Z" style="fill:#1e1612;fill-rule:nonzero;"/><path id="Tracciato_6999" d="M160.236,38.731c-0.467,-2.53 -2.469,-2.039 -3.268,-1.742c-1.182,0.384 -2.096,1.337 -2.43,2.535c-0.473,0.998 -0.664,2.107 -0.552,3.207l0.23,6.05l2.229,-0.511c0,0 4.027,-8.251 3.791,-9.539Z" style="fill:#eab070;fill-rule:nonzero;"/><path id="Tracciato_7000" d="M124.916,33.378l4.63,-2.165l1.528,2.584l-6.042,0.849l-0.116,-1.268Z" style="fill:#2f2622;fill-rule:nonzero;"/><path id="Tracciato_7001" d="M144.674,47.958l-9.966,2.038l-8.263,-1.317l-3.304,-3.383c0,0 -0.571,8.084 0.853,10.212c1.719,2.57 7.956,4.222 11.923,1.865c2.678,-1.591 8.757,-9.416 8.757,-9.416l0,0.001Z" style="fill:#fff;fill-rule:nonzero;"/><path id="Tracciato_7002" d="M135.198,44.628l-7,-0.814l1.849,2.522l1.817,0.74l3.334,-2.448Z" style="fill:#cb7d35;fill-rule:nonzero;"/><path id="Tracciato_7003" d="M139.73,34.113l-3.458,0.125l-0.006,3.881l1.49,3.71l6.5,-1.076l1.89,-1.63l0.134,-2.817l-6.55,-2.193Z" style="fill:#d38e4f;fill-rule:nonzero;"/><path id="Tracciato_7004" d="M140.922,36.672l-3.373,-0.236l-0.6,1.021l7.383,1.662l-3.41,-2.447Z" style="fill:#382625;fill-rule:nonzero;"/><path id="Tracciato_7005" d="M145.826,34.824l-8.137,-3.433l-1.283,2.893l9.331,2.387l0.089,-1.847Z" style="fill:#2f2622;fill-rule:nonzero;"/><path id="Tracciato_7006" d="M130.251,36.204l-2.17,-0.426l-2.612,1.273l5.119,0.053l-0.337,-0.9Z" style="fill:#382625;fill-rule:nonzero;"/><path id="Tracciato_7007" d="M154.349,42.336c0.516,-1.17 3.889,-3.729 3.889,-3.729l-0.043,2.336l-1.981,5.125l-0.933,-1.245l-1.867,1.659c0,0 2.079,-3.338 0.935,-4.146Z" style="fill:#d38e4f;fill-rule:nonzero;"/><path id="Tracciato_7008" d="M130.83,62.018l-5.387,-0.412l1.245,1.658l1.864,0.208l2.278,-1.454Z" style="fill:#d38e4f;fill-rule:nonzero;"/><path id="Tracciato_7009" d="M156.638,36.948c0,0 -14.033,-5.437 -22.554,-6.175c-3.244,-0.348 -6.524,-0.119 -9.688,0.675l-2.923,6.423c0,0 0.886,3.141 3.521,3.306c1.576,0.1 4.49,-1.787 6.374,-1.7c1.53,0.067 2.99,2.937 8.729,3.594c2.3,0.264 6.628,-2.161 8.587,-2.711c1.86,-0.277 3.744,-0.351 5.619,-0.221l2.335,-3.191Z" style="fill:#232d36;fill-rule:nonzero;"/><path id="Tracciato_7010" d="M146.906,36.898c0.004,-1.661 -6.151,-2.481 -6.151,-2.481c0,0 -4.903,-0.145 -5.336,1.223c-0.451,1.435 2.096,3.677 3.363,3.977c2.444,0.576 8.12,-0.661 8.124,-2.719Z" style="fill:#eab070;fill-rule:nonzero;"/><path id="Tracciato_7011" d="M130.84,35.755c-0.262,0.8 -2.491,1.654 -3.535,2.022c-2.838,0.995 -4.247,-0.646 -3.936,-1.865c0.206,-0.769 0.787,-1.385 1.543,-1.633c1.156,-0.53 2.455,-0.666 3.696,-0.388c1.354,0.388 2.52,0.993 2.232,1.864Z" style="fill:#eab070;fill-rule:nonzero;"/><path id="Tracciato_7012" d="M144.606,38.362l-3.349,-2.517l-4.626,0.375l7.975,2.142Z" style="fill:#1e1612;fill-rule:nonzero;"/><path id="Tracciato_7013" d="M129.486,36.12l-2.868,-1.242l-2.626,1.449l5.494,-0.207Z" style="fill:#1e1612;fill-rule:nonzero;"/><path id="Tracciato_7014" d="M137.746,52.461c-0.152,0.056 -5.807,0.4 -5.807,0.4l-7.344,-1.281l4.446,1.858l4.854,-0.036l3.851,-0.941Z" style="fill:#cac1ca;fill-rule:nonzero;"/><path id="Tracciato_7015" d="M124.775,44.389l-2.297,-0.183l-0.974,3l1.82,-1.816l1.451,-1.001Z" style="fill:#d38e4f;fill-rule:nonzero;"/><path id="Tracciato_7016" d="M144.796,51.396l3.023,-4.29l-6.943,-1.772l3.6,2.428l0.32,3.634Z" style="fill:#d38e4f;fill-rule:nonzero;"/><path id="Tracciato_7017" d="M153.413,61.147l-2.069,9.743l-0.414,-8.087l2.483,-1.656Z" style="fill:#cb7d35;fill-rule:nonzero;"/><path id="Tracciato_7018" d="M145.927,72.128l-5.6,9.949l0.753,-8.9l4.847,-1.049Z" style="fill:#cb7d35;fill-rule:nonzero;"/><path id="Tracciato_7019" d="M142.084,9.743c0,0 -3.468,-0.859 -4.282,-1.8c-2.431,-1.043 -3.861,0.942 -4.89,1.239c-3.173,0.922 -2.588,-0.864 -3.484,-0.839c-2.759,0.069 -1.832,2.193 -2.864,2.387c-1.412,0.077 -2.828,0.023 -4.23,-0.16c-1.402,-0.184 -0.66,6.213 0.829,7.182c0.989,0.644 2.924,-0.835 4.675,0.642c0.9,0.763 1.3,-1.9 4.642,-0.879c1.063,0.325 1.038,-3.616 2.108,-3.919c0.952,-0.269 2.585,1.043 3.524,0.729c0.91,-0.3 3.974,-4.584 3.974,-4.584l-0.002,0.002Z" style="fill:#434140;fill-opacity:0.52;fill-rule:nonzero;"/><path id="Tracciato_7020" d="M152.012,27.646l0.25,-0.331l-12.933,-9.7c-6.719,-5.035 -8.812,-10.242 -6.4,-15.916l-0.384,-0.16c-2.5,5.873 -0.358,11.241 6.535,16.41l12.932,9.697Z" style="fill:#59524e;fill-opacity:0.36;fill-rule:nonzero;"/><path id="Tracciato_7021" d="M133.794,27.35c0,0 0,0 0,0c0.114,0 0.207,-0.094 0.207,-0.207c0,-0.056 -0.022,-0.109 -0.062,-0.148c-0.136,-0.137 -13.799,-13.747 -6.469,-22.654c0.03,-0.037 0.047,-0.084 0.047,-0.132c0,-0.114 -0.094,-0.207 -0.208,-0.207c-0.062,0 -0.121,0.028 -0.16,0.076c-7.569,9.2 6.361,23.074 6.5,23.212c0.039,0.038 0.091,0.059 0.145,0.06Z" style="fill:#59524e;fill-opacity:0.63;fill-rule:nonzero;"/><path id="Tracciato_7022" d="M150.426,47.808l-1.984,3.854l-2.073,4.146l3.366,-2.34l0.691,-5.66Z" style="fill:#d38e4f;fill-rule:nonzero;"/><path id="Tracciato_7023" d="M131.226,68.422l-2.423,2.221l-5.854,-0.707l-1.014,-2.931l9.291,1.417Z" style="fill:#eab070;fill-rule:nonzero;"/><path id="Tracciato_7024" d="M127.156,67.614l-1.009,-1.081l-0.542,1.821l0.4,0.741l1.151,-1.481Z" style="fill:#d38e4f;fill-rule:nonzero;"/></g><path id="Tracciato_7025" d="M122.123,71.388l-0.624,6.007c2.869,4.735 6.483,8.65 8.446,12.119c6.49,-2.873 16.188,-9.577 22.635,-12.274c0.735,-1.603 1.119,-3.344 1.125,-5.106l0,-1.626c3.412,0.461 6.785,1.176 10.091,2.14c3.077,0.831 6.097,1.861 9.041,3.084l-0.81,0.414l0.031,0.017c-0.333,0.154 -0.676,0.319 -1.029,0.493l-0.069,0.035c-10.878,5.423 -28,19.6 -41.22,16.509c-0.484,-0.058 -0.971,-0.133 -1.462,-0.224c-6.211,-1.157 -13.818,-4.99 -14.964,-19.084c2.816,-1.201 5.773,-2.041 8.8,-2.5l0.009,-0.004Z" style="fill:#232d36;fill-rule:nonzero;"/><clipPath id="_clip1"><rect x="13.422" y="15.748" width="85.318" height="55.468"/></clipPath><g clip-path="url(#_clip1)"><path id="Tracciato_6763" d="M98.74,25.977c-35.99,-9.105 -64.74,0.09 -85.322,45.239c1.217,-13.331 7.49,-31 14.4,-39.991c11.527,-11.138 32.78,-25.607 70.922,-5.248Z" style="fill:#d0d3d6;fill-opacity:0.32;fill-rule:nonzero;"/></g><clipPath id="_clip2"><rect x="27.531" y="24.982" width="78.684" height="103.766"/></clipPath><g clip-path="url(#_clip2)"><path id="Tracciato_6764" d="M57.824,56.185c10.762,-9.7 26.736,-13.893 48.393,-13.151c-54.788,12.028 -63.435,42.747 -48.618,81.681c-8.445,-10.641 -16.248,-24.567 -14.817,-38.934c1.431,-14.367 4.682,-20.258 15.042,-29.596Z" style="fill:#d0d3d6;fill-opacity:0.32;fill-rule:nonzero;"/></g></g></svg>