<?xml version="1.0" encoding="UTF-8" standalone="no"?><!DOCTYPE svg PUBLIC "-//W3C//DTD SVG 1.1//EN" "http://www.w3.org/Graphics/SVG/1.1/DTD/svg11.dtd"><svg width="100%" height="100%" viewBox="0 0 156 42" version="1.1" xmlns="http://www.w3.org/2000/svg" xmlns:xlink="http://www.w3.org/1999/xlink" xml:space="preserve" xmlns:serif="http://www.serif.com/" style="fill-rule:evenodd;clip-rule:evenodd;stroke-linejoin:round;stroke-miterlimit:2;"><path d="M151.5,0.2l-2.7,0c-3.5,0 -3.7,0.4 -4.1,1l-5.5,13c-1.8,4.3 -3.7,8.9 -4.4,11.4c-0.7,-2.4 -1.9,-5.6 -4.4,-11.7l-5.5,-12.9c-0.4,-0.7 -1.7,-1 -4.6,-1l-3.1,0c-3,0 -3.6,0.2 -3.6,0.8l0,39.3c0,0.7 0.6,0.8 3.7,0.8l1.7,0c3.1,0 3.9,-0.1 3.9,-0.8l0,-23l0.2,0c0,0 0.2,1.1 0.7,2l6.2,14.7c0.2,0.7 0.6,1 3.5,1l1.9,0c3,0 3.2,-0.2 3.5,-1l5.7,-14.1c0.6,-1.3 1,-2.6 1,-2.6l0.2,0l0,23.4c0,0.7 0.6,0.8 3.8,0.8l1.7,0c3,0 3.9,-0.1 3.9,-0.8l0,-39.4c0.2,-0.6 -0.7,-0.9 -3.7,-0.9m-45.5,0.9c0,-0.6 -0.8,-0.8 -3.9,-0.8l-1.8,0c-3.2,0 -3.7,0.2 -3.7,0.8l0,39.4c0,0.7 0.6,0.8 3.7,0.8l1.8,0c3,0 3.9,-0.1 3.9,-0.8l0,-39.4Zm-16.7,-0.9c0.8,0 1,0.1 1,3l0,2.7c0,2.7 -0.2,3.1 -1,3.1l-9.3,0l0,31.5c0,0.7 -0.8,0.8 -4.1,0.8l-1.7,0c-3.2,0 -3.7,-0.1 -3.7,-0.8l0,-31.5l-9.3,0c-0.7,0 -1,-0.2 -1,-3.1l0,-2.7c0,-3 0.1,-3 1,-3l28.1,0Z" style="fill:#fff;fill-rule:nonzero;"/><path d="M19.8,32.6l-17.4,0c-0.6,0 -1.2,0.2 -1.7,0.7c-0.5,0.5 -0.7,1.1 -0.7,1.7l0,4.1c0,0.6 0.2,1.2 0.7,1.7c0.5,0.5 1.1,0.7 1.7,0.7l17.3,0l0.1,-8.9Zm28.8,0.7c-0.5,-0.5 -1.1,-0.7 -1.7,-0.7l-17.3,0l0,8.8l17.2,0c0.7,0 1.2,-0.2 1.7,-0.7c0.5,-0.5 0.7,-1.1 0.7,-1.7l0,-4.1c0,-0.6 -0.2,-1.2 -0.6,-1.6m0,-16.2c-0.5,-0.5 -1.1,-0.7 -1.7,-0.7l-17.3,0l0,8.8l17.2,0c0.7,0 1.2,-0.2 1.7,-0.7c0.5,-0.5 0.7,-1.1 0.7,-1.7l0,-4.1c0,-0.6 -0.2,-1.1 -0.6,-1.6m-28.8,-0.7l-17.4,0c-0.6,0 -1.2,0.2 -1.7,0.7c-0.5,0.5 -0.7,1.1 -0.7,1.7l0,4.1c0,0.6 0.2,1.2 0.7,1.7c0.5,0.5 1.1,0.7 1.7,0.7l17.3,0l0.1,-8.9Zm27.2,-7.4l-44.6,0c-0.7,0 -1.2,-0.2 -1.7,-0.7c-0.5,-0.5 -0.7,-1.1 -0.7,-1.7l0,-4.1c0,-0.6 0.2,-1.2 0.7,-1.7c0.5,-0.5 1.1,-0.7 1.7,-0.7l44.4,0c0.7,0 1.2,0.2 1.7,0.7c0.5,0.5 0.7,1.1 0.7,1.7l0,4.1c0,0.6 -0.2,1.2 -0.7,1.7c-0.3,0.5 -0.9,0.7 -1.5,0.7" style="fill:#eb0028;fill-rule:nonzero;"/></svg>